<svg xmlns="http://www.w3.org/2000/svg" width="37" height="40" viewBox="0 0 37 40">
    <g fill="#4990E2" fill-rule="nonzero">
        <path d="M35.731 38.652h-1.123V3.37a.674.674 0 0 0-.674-.674H21.349a.674.674 0 0 0-.674.674v2.921h-1.348V3.371a.674.674 0 0 0-.674-.674H15.73V.674a.674.674 0 1 0-1.348 0v2.023h-2.921a.674.674 0 0 0-.675.674v2.921H8.765a.674.674 0 0 0-.674.674v5.618H2.473a.674.674 0 0 0-.674.674v25.394H.675a.674.674 0 1 0 0 1.348h35.056a.674.674 0 1 0 0-1.348zM12.136 4.045h5.842v2.247h-5.842V4.045zM9.889 38.652h-.45v-1.124a.674.674 0 1 0-1.348 0v1.124h-.45v-2.247H9.89v2.247zm4.494-17.304v17.304h-3.146V35.73a.674.674 0 0 0-.674-.674H6.967a.674.674 0 0 0-.674.674v2.922H3.147v-24.72h11.236v7.416zm.674-8.764H9.439V7.64h11.236v13.034h-4.944v-2.247h2.023a.674.674 0 1 0 0-1.348H15.73V14.83h2.023a.674.674 0 1 0 0-1.348H15.73v-.224a.674.674 0 0 0-.674-.675zm11.91 26.068H15.731V22.023h11.236v16.629zm6.292 0h-4.944V20.449a.674.674 0 1 0-1.348 0v.225H25.62v-.225a.674.674 0 1 0-1.348 0v.225h-2.248V4.045H33.26v34.607z"/>
        <path d="M18.653 37.304a.674.674 0 0 0 .674-.675V24.045a.674.674 0 1 0-1.349 0V36.63c0 .373.302.675.675.675zM21.35 37.304a.674.674 0 0 0 .673-.675V24.045a.674.674 0 1 0-1.348 0V36.63c0 .373.302.675.674.675zM24.046 37.304a.674.674 0 0 0 .674-.675V24.045a.674.674 0 1 0-1.348 0V36.63c0 .373.302.675.674.675zM24.945 8.54a.674.674 0 0 0 .674-.675v-.899a.674.674 0 1 0-1.348 0v.9c0 .372.301.673.674.673zM27.641 8.54a.674.674 0 0 0 .674-.675v-.899a.674.674 0 1 0-1.348 0v.9c0 .372.302.673.674.673zM30.338 8.54a.674.674 0 0 0 .674-.675v-.899a.674.674 0 1 0-1.348 0v.9c0 .372.302.673.674.673zM24.945 13.034a.674.674 0 0 0 .674-.674v-.9a.674.674 0 1 0-1.348 0v.9c0 .372.301.674.674.674zM27.641 13.034a.674.674 0 0 0 .674-.674v-.9a.674.674 0 1 0-1.348 0v.9c0 .372.302.674.674.674zM30.338 13.034a.674.674 0 0 0 .674-.674v-.9a.674.674 0 1 0-1.348 0v.9c0 .372.302.674.674.674zM24.945 17.528a.674.674 0 0 0 .674-.674v-.899a.674.674 0 1 0-1.348 0v.899c0 .372.301.674.674.674zM27.641 17.528a.674.674 0 0 0 .674-.674v-.899a.674.674 0 1 0-1.348 0v.899c0 .372.302.674.674.674zM30.338 17.528a.674.674 0 0 0 .674-.674v-.899a.674.674 0 1 0-1.348 0v.899c0 .372.302.674.674.674zM6.068 19.326a.674.674 0 0 0 .674-.674v-.9a.674.674 0 1 0-1.348 0v.9c0 .372.302.674.674.674zM8.765 19.326a.674.674 0 0 0 .674-.674v-.9a.674.674 0 1 0-1.348 0v.9c0 .372.302.674.674.674zM11.462 19.326a.674.674 0 0 0 .674-.674v-.9a.674.674 0 1 0-1.349 0v.9c0 .372.302.674.675.674zM6.068 23.82a.674.674 0 0 0 .674-.674v-.899a.674.674 0 1 0-1.348 0v.9c0 .371.302.673.674.673zM8.765 23.82a.674.674 0 0 0 .674-.674v-.899a.674.674 0 1 0-1.348 0v.9c0 .371.302.673.674.673zM11.462 23.82a.674.674 0 0 0 .674-.674v-.899a.674.674 0 1 0-1.349 0v.9c0 .371.302.673.675.673zM6.068 28.315a.674.674 0 0 0 .674-.675v-.898a.674.674 0 1 0-1.348 0v.898c0 .373.302.675.674.675zM8.765 28.315a.674.674 0 0 0 .674-.675v-.898a.674.674 0 1 0-1.348 0v.898c0 .373.302.675.674.675zM11.462 28.315a.674.674 0 0 0 .674-.675v-.898a.674.674 0 1 0-1.349 0v.898c0 .373.302.675.675.675zM6.068 32.809a.674.674 0 0 0 .674-.674v-.9a.674.674 0 1 0-1.348 0v.9c0 .372.302.674.674.674zM8.765 32.809a.674.674 0 0 0 .674-.674v-.9a.674.674 0 1 0-1.348 0v.9c0 .372.302.674.674.674zM11.462 32.809a.674.674 0 0 0 .674-.674v-.9a.674.674 0 1 0-1.349 0v.9c0 .372.302.674.675.674zM30.338 22.023a.674.674 0 0 0 .674-.675v-.899a.674.674 0 1 0-1.348 0v.9c0 .372.302.674.674.674zM30.338 26.517a.674.674 0 0 0 .674-.674v-.9a.674.674 0 1 0-1.348 0v.9c0 .372.302.674.674.674zM30.338 31.011a.674.674 0 0 0 .674-.674v-.899a.674.674 0 1 0-1.348 0v.9c0 .371.302.673.674.673zM30.338 35.506a.674.674 0 0 0 .674-.675v-.898a.674.674 0 1 0-1.348 0v.898c0 .373.302.675.674.675zM18.428 10.562a.674.674 0 0 0-.674-.674H12.36a.674.674 0 1 0 0 1.348h5.394a.674.674 0 0 0 .674-.674z"/>
    </g>
</svg>
