<svg xmlns="http://www.w3.org/2000/svg" width="38" height="36" viewBox="0 0 38 36">
    <g fill="none" fill-rule="evenodd">
        <path fill="#4990E2" d="M3.42 14.345h26.844c1.819 0 3.339 1.511 3.339 3.38V32.4c0 1.841-1.493 3.38-3.339 3.38H3.42C1.601 35.78.081 34.27.081 32.4V17.725c.028-1.841 1.52-3.38 3.339-3.38z"/>
        <g fill="#FFF">
            <path d="M7.681 20.94H9.8a.49.49 0 0 1 .488.495v2.144a.49.49 0 0 1-.488.494H7.68a.49.49 0 0 1-.488-.494v-2.144a.49.49 0 0 1 .488-.495zM6.297 18.852h.76l.543 1.484H5.103v-.33a1.202 1.202 0 0 1 1.194-1.154zm1.357 0H9.8l-.57 1.484H8.197l-.543-1.484zm2.796 0h.76c.651 0 1.167.522 1.167 1.182v.302H9.88l.57-1.484zm1.9 2.088v1.292h-1.52v-1.127c0-.055 0-.11-.027-.137h1.547v-.028zm-5.7 1.265H5.13v-1.292h1.547c0 .055-.027.082-.027.137v1.155zm5.7.604v1.292h-1.547c0-.055.027-.083.027-.138V22.81h1.52zm-5.673 1.264H5.13V22.81h1.52v1.127c0 .055 0 .11.027.137zm5.673.605v.33c0 .66-.516 1.181-1.167 1.181h-.76l-.57-1.484h2.497v-.027zm-2.524 1.484H7.68l.57-1.484h1.032l.543 1.484zm-2.796 0h-.76a1.166 1.166 0 0 1-1.167-1.182v-.33H7.6l-.57 1.512z"/>
        </g>
        <path fill="#FFF" fill-rule="nonzero" d="M18.159 21.573v-.55h.325l-.244-.797c-.027-.055-.027-.082-.027-.137 0-.055-.027-.11-.027-.165 0-.055-.027-.11-.027-.165v.027-.934c.081 0 .135.027.19.055a.213.213 0 0 1 .108.11l.082.165.922 2.693v.082c0 .055-.027.11-.054.165-.027.055-.081.083-.108.11-.055.028-.109.028-.163.028-.055 0-.082 0-.136-.028a.375.375 0 0 1-.109-.082c-.027-.028-.054-.083-.081-.11l-.163-.467h-.488zm3.745.687c.082 0 .136-.028.19-.055a.213.213 0 0 0 .109-.11.394.394 0 0 0 .054-.165v-2.776c0-.055-.027-.11-.054-.165a.213.213 0 0 0-.109-.11c-.054-.027-.108-.055-.163-.055a.383.383 0 0 0-.162.055.213.213 0 0 0-.109.11.394.394 0 0 0-.054.165v1.786a2.722 2.722 0 0 0-.245-.412c-.081-.137-.135-.247-.217-.384-.054-.11-.135-.248-.19-.358a2.515 2.515 0 0 0-.217-.357c-.081-.137-.136-.275-.244-.412-.027-.055-.082-.083-.136-.138-.054-.027-.108-.055-.19-.055a.289.289 0 0 0-.163.055.213.213 0 0 0-.108.11.394.394 0 0 0-.055.165v2.803c0 .055.028.11.055.165a.213.213 0 0 0 .108.11c.055.028.109.055.163.055a.383.383 0 0 0 .163-.055.213.213 0 0 0 .109-.11.394.394 0 0 0 .054-.165v-1.759l1.086 1.924.081.083a.205.205 0 0 0 .109.055h.135zm3.013-2.913c.027-.028.054-.055.054-.083 0-.027.028-.055.028-.055v-.055c0-.055 0-.082-.028-.11a.379.379 0 0 1-.081-.11c-.027-.027-.054-.055-.109-.055-.027-.027-.081-.027-.108-.027a.383.383 0 0 0-.163.055.375.375 0 0 0-.109.082l-.922 1.072v-.907a.211.211 0 0 0-.055-.137c-.027-.055-.081-.083-.108-.11-.055-.028-.109-.055-.163-.055-.054 0-.109.027-.163.055a.213.213 0 0 0-.109.11c-.027.055-.054.082-.054.137v2.803c0 .055.027.11.054.165a.213.213 0 0 0 .109.11.383.383 0 0 0 .163.055c.054 0 .108-.027.163-.055a.213.213 0 0 0 .108-.11.394.394 0 0 0 .055-.165v-.962l.081-.082.896 1.237c.027.055.081.082.108.11.055.027.109.027.163.027.054 0 .109 0 .136-.027.027-.028.081-.055.108-.083.028-.027.055-.055.055-.11.027-.027.027-.082.027-.11v-.082c0-.028-.027-.055-.054-.083l-1.032-1.374.95-1.071zm-9.473.137h.109c.081 0 .136.027.19.055.054.027.081.082.108.137.028.055.028.11.028.165 0 .055 0 .11-.028.165a.379.379 0 0 1-.081.11.205.205 0 0 1-.109.055c-.054.027-.081.027-.135.027h-.082v.605h.109c.081 0 .163.028.217.055.054.027.109.082.163.137a.523.523 0 0 1 .054.22.523.523 0 0 1-.054.22.279.279 0 0 1-.163.138c-.081.027-.163.054-.244.054h-.082v.605h.027a1.3 1.3 0 0 0 .489-.082c.136-.055.271-.11.353-.22a.576.576 0 0 0 .217-.303.887.887 0 0 0 .081-.384c0-.11-.027-.193-.054-.275-.027-.083-.081-.137-.136-.22a1.185 1.185 0 0 0-.19-.165.809.809 0 0 0-.217-.11c.082-.055.19-.11.245-.165a.427.427 0 0 0 .162-.22c.055-.082.055-.192.055-.302 0-.11-.027-.247-.055-.357a1.137 1.137 0 0 0-.19-.302.975.975 0 0 0-.325-.22 1.254 1.254 0 0 0-.462-.083h-.054v.66h.054zm2.715-.632v.934c0 .028 0 .083-.028.11 0 .055-.027.11-.027.165 0 .055-.027.11-.027.137l-.244.797h.326v.55h-.489l-.163.467c-.027.055-.054.083-.081.11-.027.028-.082.055-.109.083-.054.027-.081.027-.108.027-.055 0-.109 0-.163-.027a.213.213 0 0 1-.109-.11.394.394 0 0 1-.054-.165v-.028-.027-.028l.923-2.693.081-.165c.027-.055.082-.082.109-.11.027-.027.108-.027.163-.027zm-3.176 1.346v-.714h.461v-.605h-.733a.499.499 0 0 0-.19.055.594.594 0 0 0-.135.11.394.394 0 0 0-.055.165v2.666c0 .055.028.11.055.165.027.055.081.082.135.11.055.027.109.055.19.055h.733V21.6h-.461v-.824h.461v-.605h-.461v.027zM27.441 32.263v-.11l.163-.138h.597v-1.017h-.597l-.163-.137v-.11l.163-.165h.597V29.57h-.597l-.163-.137v-.11l.163-.137h.625l.217.192.135.165v1.1l-.135.164.135.165v1.072l-.19.22-.162.137h-.625l-.163-.137zm0-2.913v.11l-.162.137h-.598v1.017h.598l.162.137v.11l-.162.165h-.598v1.017h.598l.162.137v.11l-.162.137h-.625l-.217-.192-.136-.165v-1.072l.136-.164-.136-.165v-1.072l.19-.22.163-.165h.625l.162.138zm-2.632 2.913v-.11l.162-.138h.598v-1.017h-.598l-.162-.137v-.11l.162-.165h.625l.217.193.136.165v1.071l-.19.22-.163.138h-.625l-.162-.11zm0-2.83v-.11l.162-.138h.625l.217.192-.217.192h-.625l-.162-.137zM6.16 32.4h-.624l-.217-.192.19-.193h.597v-1.044l.136-.165-.136-.165v-1.044H5.51l-.217-.192.19-.193h.624l.19.193.163.164v1.072l-.136.165.136.165v1.044h.597l.217.193-.19.192H6.46l-.163-.137-.136.137zm18.648-3.05v.11l-.163.137h-.597v1.017h.597l.163.137v.11l-.163.165h-.597v1.017h.597l.163.137v.11l-.163.137h-.625l-.217-.192-.135-.165v-1.072l.135-.164-.135-.165v-1.072l.19-.22.162-.165h.625l.163.138zM8.794 32.4H8.17l-.217-.192-.136-.165V30.97l.19-.22.163-.165h.624l.163.165.163-.165h.597V29.57H9.12l-.163-.137-.163.137H8.17l-.217-.192.217-.192h.624l.163.137.163-.137h.624l.217.192.136.165v1.1l-.19.22-.163.164H9.12l-.163-.165-.163.165h-.597v1.017h.597l.163.137.163-.137h.624l.217.192-.217.192H9.12l-.163-.137-.163.11zm2.66 0h-.624l-.217-.192.217-.193h.624l.163.138.163-.138h.597v-1.017h-.597l-.217-.192.217-.192h.597v-1.017h-.597l-.163-.137-.163.137h-.624l-.217-.192.217-.193h.624l.163.138.163-.138h.624l.217.193.136.164v1.1l-.136.165.136.164v1.072l-.19.22-.163.137h-.624l-.163-.137-.163.11zm2.633-1.402h-.624l-.217-.192-.136-.165V29.57l.19-.22.19.22v1.045h.597l.163.137.163-.137h.597v-1.045l.19-.22.19.22v1.072l-.136.165.136.165v1.072l-.19.22-.19-.22v-1.045h-.624l-.163-.137-.136.137zm5.266 0h-.624l-.218-.192-.135-.165V29.57l.19-.22.19.22v1.045h.597l.163.137.163-.137h.597v-1.045l.19-.22.19.22v1.072l-.136.165.136.165v1.072l-.19.22-.19-.22v-1.045h-.597l-.163-.137-.163.137zm2.66 1.402h-.624l-.218-.192.218-.193h.624l.163.138.163-.138h.597v-1.017h-.597l-.163-.164-.163.164h-.624l-.218-.192-.135-.165V29.57l.19-.22.163-.164h.624l.163.137.163-.137h.624l.217.192-.217.192h-.624l-.163-.137-.163.137h-.597v1.017h.597l.163.165.163-.165h.624l.217.193.136.165v1.071l-.19.22-.163.138h-.624l-.163-.138-.163.165z"/>
        <path fill="#4990E2" d="M26.817 1.154l3.8-.852c1.792-.384 3.556.77 3.963 2.583l.217.99-7.98 1.759v-4.48zm0 11.9v-1.76l9.147-2.005 1.71 7.942c.38 1.813-.76 3.6-2.551 4.012h-.054v-4.397c0-2.089-1.683-3.793-3.746-3.793h-4.506zM4.397 6.1l22.42-4.947v4.48L2.063 11.102l-.217-.989c-.38-1.814.76-3.628 2.551-4.012zm22.42 5.194v1.758h-7.98l7.98-1.758z"/>
    </g>
</svg>
