<svg xmlns="http://www.w3.org/2000/svg" width="87" height="88" viewBox="0 0 87 88">
    <g fill="#414042" fill-rule="nonzero" opacity=".2">
        <path d="M61.16 0H25.701L7.956 30.602l17.746 30.585H61.16l17.746-30.585L61.16 0zm-4.152 54.023H29.853L16.258 30.602l13.595-23.42h27.155l13.595 23.42-13.595 23.42z"/>
        <path d="M30.182 17.41v5.287h10.602v5.287l-.017-.017H30.165v5.287h15.913l.016.017V22.715h5.31v15.809h-21.24v5.287h26.533v-26.4H30.182z"/>
        <g>
            <path d="M8.337 87.69H0V72.501h8.337v.982H1.072v5.734h6.884v.982H1.072v6.51h7.265zM25.685 87.69v-7.405c0-1.102-.208-1.912-.64-2.428-.432-.517-1.107-.758-1.972-.758-1.159 0-2.006.293-2.56.93-.553.637-.847 1.619-.847 3.014v6.63h-1.073v-7.698c0-1.912-.899-2.859-2.646-2.859-1.193 0-2.058.345-2.612 1.016-.553.69-.813 1.791-.813 3.324v6.217h-1.02v-11.28h.848l.207 1.533h.035c.294-.551.76-.982 1.331-1.326.606-.293 1.194-.465 1.92-.465 1.8 0 2.958.688 3.46 1.997h.034c.38-.637.848-1.154 1.488-1.48.64-.345 1.331-.517 2.144-.517 1.246 0 2.18.344 2.785.981s.934 1.705.934 3.152v7.405l-1.003.017zM34.956 87.897c-1.66 0-2.958-.517-3.84-1.533-.934-1.016-1.366-2.428-1.366-4.254 0-1.79.432-3.237 1.331-4.34.9-1.067 2.093-1.618 3.598-1.618 1.332 0 2.387.465 3.165 1.412.761.93 1.159 2.17 1.159 3.789v.843h-8.164c0 1.533.38 2.721 1.107 3.53.727.81 1.747 1.24 3.079 1.24.64 0 1.193-.034 1.712-.12.467-.086 1.107-.293 1.885-.603v.93a6.86 6.86 0 0 1-1.798.551c-.623.087-1.228.173-1.868.173zm-.294-10.798c-1.107 0-1.972.344-2.647 1.068-.64.723-1.072 1.74-1.159 3.1h7.005c0-1.326-.294-2.343-.847-3.066-.554-.775-1.366-1.102-2.352-1.102zM46.596 76.152c.467 0 .986.034 1.54.12l-.208.982a5.982 5.982 0 0 0-1.453-.172c-.986 0-1.747.43-2.387 1.24-.605.81-.934 1.825-.934 3.1v6.216h-1.02v-11.28h.899l.086 2.05h.087c.467-.844.986-1.412 1.487-1.74.485-.344 1.125-.516 1.903-.516zM54.967 87.897c-1.625 0-2.905-.517-3.805-1.533-.9-1.016-1.366-2.428-1.366-4.254 0-1.877.467-3.323 1.418-4.391.934-1.016 2.266-1.567 3.926-1.567.986 0 1.92.172 2.82.516l-.294.896c-.986-.344-1.834-.465-2.56-.465-1.419 0-2.439.43-3.165 1.274-.727.844-1.073 2.084-1.073 3.703 0 1.533.346 2.72 1.073 3.582.726.844 1.712 1.274 2.992 1.274 1.02 0 1.972-.172 2.871-.55v.93c-.744.378-1.678.585-2.837.585zM69.963 82.024c0 1.826-.432 3.272-1.332 4.306-.899 1.016-2.144 1.567-3.718 1.567a5.032 5.032 0 0 1-2.647-.724c-.76-.465-1.331-1.153-1.747-2.049-.38-.895-.605-1.911-.605-3.1 0-1.825.433-3.272 1.332-4.305.9-1.033 2.145-1.533 3.684-1.533 1.54 0 2.785.517 3.684 1.567.882 1 1.35 2.446 1.35 4.271zm-8.977 0c0 1.533.346 2.773 1.021 3.617.692.844 1.66 1.326 2.906 1.326 1.245 0 2.214-.43 2.905-1.326.692-.844 1.021-2.084 1.021-3.617 0-1.567-.346-2.772-1.02-3.616-.692-.844-1.66-1.275-2.906-1.275-1.246 0-2.214.431-2.906 1.275-.675.81-1.02 2.05-1.02 3.616zM72.955 73.259c0-.69.208-.982.64-.982a.64.64 0 0 1 .52.258c.138.173.172.43.172.724 0 .292-.034.55-.173.723a.596.596 0 0 1-.519.258c-.415 0-.64-.344-.64-.981zm1.16 14.431h-1.021V76.41h1.02v11.28zM85.824 87.69v-7.319c0-1.154-.26-1.963-.727-2.463-.467-.516-1.245-.757-2.214-.757-1.366 0-2.352.344-2.992 1.016-.64.671-.934 1.79-.934 3.323v6.217h-1.02v-11.28h.9l.207 1.533h.034c.727-1.188 2.059-1.79 3.927-1.79 2.56 0 3.84 1.36 3.84 4.132v7.405h-1.021v-.017z"/>
        </g>
    </g>
</svg>
