<svg xmlns="http://www.w3.org/2000/svg" width="144" height="28" viewBox="0 0 144 28">
    <g fill="#414042" fill-rule="nonzero" opacity=".2">
        <path d="M39.315 27.633h-6.001V14.52H31.64v13.12h-6.001V.298h6v10.91h1.675V.298h6zM53.296 27.633h-4.8v-.857c-.406.773-1.568 1.163-3.486 1.163-2.959 0-4.442-1.155-4.442-3.473v-4.438c0-.994.36-1.859 1.078-2.593.719-.734 2.163-1.66 4.334-2.762 1.254-.635 1.889-1.147 1.889-1.522V9.869c0-.727-.314-1.086-.933-1.086-.71 0-1.07.88-1.07 2.647 0 .32.015.787.053 1.407.054.62.077 1.094.077 1.408h-5.237V9.823c0-2.984 2.156-4.483 6.475-4.483 4.036 0 6.062 1.56 6.062 4.674v17.619zm-5.427-4.131v-5.7c-1.246.306-1.866.865-1.866 1.676v4.024c0 .673.321 1.01.971 1.01.596 0 .895-.337.895-1.01zM54.534 18.736h5.428v4.69c0 .749.306 1.124.917 1.124.612 0 .918-.72.918-2.158 0-1.866-.375-3.075-1.124-3.626-2.836-1.484-4.54-2.524-5.122-3.121-.58-.59-.879-1.477-.879-2.662v-2.976c0-3.114 2.11-4.675 6.322-4.675 4.105 0 6.154 1.492 6.154 4.483v4.369H61.85l.115-2.647c0-1.844-.337-2.762-1.01-2.762-.672 0-1.008.581-1.008 1.736 0 1.194.152 2.097.45 2.709.299.612 1.958 1.66 4.985 3.144 1.253.903 1.888 2.096 1.888 3.588v3.32c0 3.114-2.14 4.674-6.429 4.674-4.197 0-6.299-1.491-6.299-4.483l-.008-4.727zM81.106 27.633h-5.427V9.793c0-.674-.306-1.01-.918-1.01-.619 0-.932.32-.932.971V27.64H68.4V.298h5.428v5.876c.65-.543 1.765-.819 3.363-.819 1.063 0 1.98.283 2.752.842.772.558 1.162 1.3 1.162 2.234v19.202zM95.53 9.846h-5.45V4.43c0-.444-.275-.666-.825-.666-.581 0-.864.222-.864.666v18.972c0 .444.29.666.864.666.55 0 .825-.222.825-.666v-6.747h5.45v6.938c0 1.293-.634 2.334-1.903 3.114-1.269.78-2.706 1.17-4.303 1.17-4.625 0-6.934-1.637-6.934-4.919V5.363c0-3.55 2.309-5.317 6.934-5.317 4.143 0 6.207 1.614 6.207 4.843v4.957zM96.677 23.272v-13.25c0-3.114 2.156-4.674 6.46-4.674 1.666 0 3.126.36 4.388 1.086 1.261.727 1.895 1.859 1.895 3.397v13.632c0 2.984-2.094 4.483-6.283 4.483-4.312-.007-6.46-1.56-6.46-4.674zm7.316.153V9.87c0-.727-.313-1.086-.933-1.086-.634 0-.955.36-.955 1.086v13.556c0 .75.321 1.125.955 1.125.62 0 .933-.375.933-1.125zM115.857 4.277h-5.427V.298h5.427v3.979zm0 23.356h-5.427V5.5h5.427v22.132zM129.708 27.633h-5.427V9.869c0-.673-.313-1.01-.94-1.01s-.94.321-.94.972v17.81h-5.428V5.5h5.428v.742c.726-.597 1.85-.895 3.363-.895.978 0 1.888.267 2.714.803.825.535 1.238 1.316 1.238 2.348l-.008 19.134zM130.847 18.736h5.428v4.69c0 .749.306 1.124.917 1.124.612 0 .918-.72.918-2.158 0-1.866-.375-3.075-1.124-3.626-2.836-1.484-4.54-2.524-5.122-3.121-.58-.59-.879-1.477-.879-2.662v-2.976c0-3.114 2.11-4.675 6.322-4.675 4.105 0 6.154 1.492 6.154 4.483v4.369h-5.298l.115-2.647c0-1.844-.337-2.762-1.01-2.762-.672 0-1.008.581-1.008 1.736 0 1.194.153 2.097.45 2.709.299.612 1.958 1.66 4.985 3.144 1.253.903 1.888 2.096 1.888 3.588v3.32c0 3.114-2.14 4.674-6.429 4.674-4.197 0-6.299-1.491-6.299-4.483l-.008-4.727z"/>
        <g>
            <path d="M13.102.298H.016v16.67h6V6.303h13.615V.299zM7.843 21.627H.015v6.006h19.616v-6.006h-9.41z"/>
            <path d="M15.06 10.963h-3.043v6.005h7.614v-6.005h-3.654z"/>
        </g>
    </g>
</svg>
