<svg xmlns="http://www.w3.org/2000/svg" width="93" height="95" viewBox="0 0 93 95">
    <g fill="#414042" fill-rule="nonzero" opacity=".2">
        <path d="M42.677 35.383c-.16-4.123 3.13-7.41 7.166-7.091 3.29.249 5.78 2.808 6.01 6.007.338 4.123-2.97 7.41-7.095 7.09-3.13-.248-5.779-2.807-6.01-6.006h-.071zm34.621-.818v-.337c-.16-8.566-4.125-16.154-10.384-21.095-.57-.569-.818-1.475-.338-2.15l1.654-3.128c1.653-2.47.658-5.598-1.654-7.002h-.249c-2.472-1.404-5.601-.569-7.006 1.902l-2.472 4.123c-.249.497-.996.817-1.654.657a35.72 35.72 0 0 0-4.445-.498c-4.535-.248-9.638.818-11.54 8.815-1.477 6.185-1.156 9.223-.819 10.716.16.569.818.818 1.156.338 1.654-2.31 4.286-3.963 7.753-4.62.658 0 2.152-.25 3.717-.16 5.44.408 12.127 2.63 19.204 8.245 3.059 2.47 4.944 4.443 6.188 5.936.338.409.996.16.996-.409v-1.067l-.107-.266zM47.62 48.57c.41-.409.16-1.066-.338-1.155-2.81-.338-5.53-1.653-7.824-4.372-.498-.497-1.404-1.652-2.062-3.127-2.472-4.94-3.788-11.783-2.472-20.598.658-3.963 1.316-6.593 2.063-8.405.16-.498-.41-.996-.818-.658-.25 0-.41.16-.57.338h-.408c0 .16-.16.249-.338.249-7.255 4.442-11.879 11.693-13.194 19.601 0 .818-.818 1.475-1.654 1.475h-3.308c-2.88 0-4.943 2.222-4.943 5.1 0 2.969 2.063 5.279 4.943 5.279h4.535c.818 0 1.316.498 1.476 1.155.409 1.475.818 2.63 1.653 4.123 2.152 4.123 5.353 7.66 13.515 5.598 5.779-1.475 8.41-3.625 9.566-4.692l.178.09zm22.672 4.94a17.168 17.168 0 0 0 2.721-3.465c2.472-3.785 3.965-8.406-1.903-14.412-4.125-4.372-7.415-5.527-8.82-5.936-.497 0-.995.409-.818.817 1.156 2.72 1.316 5.776.16 9.064-.248.569-.817 1.973-1.653 3.288-3.13 4.442-8.411 9.063-16.822 12.35-3.628 1.476-6.26 2.151-8.25 2.47-.41 0-.57.818-.16 1.067.248 0 .408.249.657.338l.338.249s.249 0 .338.16c7.415 4.123 16.075 4.371 23.49 1.652.818-.408 1.654 0 1.974.658l1.813 3.057c1.316 2.47 4.446 3.287 6.918 1.901 2.471-1.475 3.467-4.62 2.062-7.09l-2.454-4.106c-.337-.569-.249-1.315.25-1.901l.16-.16zM5.886 79.42L0 94.721h3.539l1.191-3.127h5.53l1.156 3.127h3.556l-5.885-15.3H5.886zm3.112 9.046H6.01l1.494-3.839 1.494 3.839zm22.352-4.87c-.623-.408-1.352-.621-2.187-.621a4.5 4.5 0 0 0-2.188.568c-.533.32-.995.693-1.404 1.155-.32-.462-.712-.87-1.192-1.155-.622-.32-1.245-.533-2.01-.533a4.9 4.9 0 0 0-2.009.409c-.409.195-.835.409-1.155.693v-.942H15.79v11.551h3.432v-5.118c0-.995.125-1.723.32-2.186.125-.408.374-.746.694-.941.32-.32.693-.374 1.067-.374.32 0 .622.071.818.25.249.16.462.443.622.817a9.07 9.07 0 0 1 .214 2.008v5.544h3.13v-5.189c0-.995.16-1.724.32-2.186.16-.373.444-.693.746-.942.32-.213.623-.32 1.067-.32.534 0 .943.16 1.245.498.16.32.409.871.409 2.31v5.83h3.13v-6.647c0-1.35-.072-2.31-.32-2.932-.32-.622-.694-1.12-1.352-1.493l.018-.053zm10.171-.621c-.693 0-1.37.16-1.974.444-.409.16-.942.409-1.245.693v-4.994h-3.13v15.603h3.13v-.781c.623.32.872.533 1.245.693.57.248 1.245.32 1.867.32 1.494 0 2.81-.534 3.877-1.689 1.067-1.102 1.618-2.506 1.618-4.212 0-1.723-.533-3.18-1.565-4.318-1.067-1.12-2.347-1.688-3.84-1.688l.017-.071zm2.063 6.006c0 .871-.214 1.564-.712 2.097-.497.622-1.12.836-1.867.836-.746 0-1.369-.25-1.867-.782-.533-.533-.782-1.244-.782-2.133 0-.888.249-1.564.782-2.061.498-.534 1.12-.782 1.867-.782.783 0 1.37.248 1.867.782.534.568.747 1.244.747 2.061l-.035-.018zm6.348-10.13c-.534 0-1.031.196-1.44.623-.374.32-.623.835-.623 1.404 0 .568.25 1.066.623 1.475a2.09 2.09 0 0 0 1.475.622c.57 0 1.032-.196 1.44-.622.374-.374.623-.871.623-1.44s-.249-1.066-.622-1.475c-.41-.444-.943-.622-1.476-.622v.036zm-1.565 15.87h3.13v-11.55h-3.13v11.55zm9.585-7.18l-.943-.461c-.622-.32-.711-.409-.747-.444-.089-.09-.089-.196-.089-.214 0-.07 0-.16.125-.213a.95.95 0 0 1 .533-.16c.463 0 1.032.32 1.619.942l.248.249 2.028-2.133-.16-.195a4.277 4.277 0 0 0-1.69-1.404c-.622-.373-1.351-.533-2.098-.533-1.102 0-2.01.32-2.72.995a3.153 3.153 0 0 0-1.103 2.399c0 1.44.942 2.648 2.81 3.59l.942.444c.622.373.996.71.996.995 0 .071 0 .196-.214.32-.32.32-.871.32-1.653-.089-.374-.249-.712-.497-1.032-.835l-.249-.32-2.098 2.31.16.196c.996 1.315 2.383 1.973 4.072 1.973 1.245 0 2.258-.32 3.005-1.031.783-.693 1.192-1.564 1.192-2.63 0-.818-.214-1.564-.623-2.097-.462-.622-1.191-1.156-2.311-1.689v.036zm12.287-3.447a3.335 3.335 0 0 0-1.067-.693c-.622-.32-1.245-.409-1.974-.409-1.493 0-2.756.57-3.805 1.689-1.031 1.12-1.565 2.594-1.565 4.318 0 1.688.57 3.128 1.618 4.247 1.103 1.191 2.383 1.742 3.877 1.742.693 0 1.244-.089 1.814-.32a6.487 6.487 0 0 0 1.102-.71v.781h3.432V83.188h-3.432v.942-.036zm-.498 2.808c.498.533.747 1.19.747 2.062 0 .87-.213 1.563-.711 2.132-.534.533-1.12.782-1.867.782-.783 0-1.37-.249-1.868-.817-.533-.498-.782-1.191-.782-2.062 0-.835.249-1.493.747-2.061.498-.534 1.12-.782 1.867-.782.782 0 1.405.248 1.867.782v-.036zm8.66-8.05c-.836 0-1.565.195-2.01.622-.462.32-.746.835-.835 1.492 0 .25-.071.942-.071 2.186h-.836v3.128h.942v8.441h3.13v-8.44h1.867v-3.11h-1.725l.071-.943c0-.32.09-.373.09-.373 0-.16.533-.16 1.244 0l.32.16v-2.648l-.16-.071a4.681 4.681 0 0 0-1.974-.409l-.053-.035zm14.546 10.396c0-1.866-.57-3.377-1.69-4.532-1.12-1.155-2.596-1.724-4.374-1.724-1.69 0-3.13.622-4.214 1.724-1.103 1.155-1.654 2.595-1.654 4.372 0 1.653.569 3.057 1.69 4.194 1.155 1.12 2.63 1.688 4.374 1.688 1.155 0 2.187-.195 3.005-.622.836-.373 1.565-1.03 2.187-1.866l.196-.32-2.81-1.315-.16.16c-.694.622-1.476.942-2.4.942-.747 0-1.405-.213-1.868-.622a2.157 2.157 0 0 1-.836-1.315h8.59v-.782.018h-.036zM84.5 87.222c.25-.32.463-.622.711-.782.498-.373 1.103-.533 1.779-.533.622 0 1.191.124 1.653.462.32.32.623.569.783.87h-4.944v-.017h.018z"/>
    </g>
</svg>
