<svg xmlns="http://www.w3.org/2000/svg" width="222" height="28" viewBox="0 0 222 28">
    <g fill="#414042" fill-rule="nonzero" opacity=".3">
        <path d="M0 14.03C0 6.654 4.626.301 13.398.301c3.335 0 5.948.994 8.742 3.402a2.567 2.567 0 0 1 .09 3.703c-1.051.904-2.613.813-3.515-.09-1.562-1.656-3.184-2.107-5.317-2.107-5.888 0-8.712 4.185-8.712 8.821 0 4.757 2.794 9.093 8.712 9.093 2.193 0 4.176-.874 5.948-2.44 1.172-.902 2.824-.48 3.515.483.6.843.901 2.258-.42 3.582-2.674 2.47-5.889 2.981-9.043 2.981C4.176 27.729 0 21.406 0 14.03zm32.173 10.93c0 3.341-5.076 3.431-5.076.09V3.311A2.291 2.291 0 0 1 29.38.994h10.153C49.237.994 51.22 14 43.108 17.252l5.077 6.232c1.983 2.95-1.983 5.78-4.266 2.86l-5.767-8.28h-5.979v6.895zm0-11.321h7.36c4.957 0 5.258-8.039 0-8.039h-7.36v8.039zm18.145-8.972c-1.802-2.47 2.283-5.57 4.266-2.56l6.699 9.966 6.759-9.965c2.043-2.8 6.278 0 4.266 2.559L63.656 17.16v7.919c0 3.372-5.047 3.281-5.047-.03V17.19L50.318 4.667zm25.324-1.355c0-1.265.992-2.62 2.614-2.62h8.802c4.956 0 9.402 3.342 9.402 9.725 0 6.052-4.476 9.424-9.402 9.424h-6.369v5.058c0 1.686-1.051 2.62-2.433 2.62-1.262 0-2.614-.964-2.614-2.62V3.312zm5.047 2.137v9.545h6.369c2.553 0 4.566-2.259 4.566-4.637 0-2.68-2.043-4.908-4.566-4.908h-6.369zm26.376.332h-6.67c-3.334 0-3.334-4.908 0-4.908h18.055c3.395 0 3.395 4.908 0 4.908h-6.338V25.11c0 3.342-5.047 3.402-5.047 0V5.78zm29.109 22.068c-7.06.302-14.39-4.395-14.39-13.759 0-9.423 7.33-14.03 14.39-14.03 6.669.331 13.668 4.968 13.668 14.03 0 9.063-6.999 13.76-13.668 13.76zm-.45-22.821c-4.266 0-8.923 3.01-8.923 9.062 0 5.992 4.657 9.063 8.922 9.063 4.386 0 9.073-3.041 9.073-9.063.03-6.051-4.657-9.062-9.073-9.062zM154.078 3.312c0-1.265.992-2.62 2.614-2.62h8.802c4.956 0 9.402 3.342 9.402 9.725 0 6.052-4.476 9.424-9.402 9.424h-6.399v5.058c0 1.686-1.051 2.62-2.433 2.62-1.262 0-2.614-.964-2.614-2.62l.03-21.587zm5.017 2.137v9.545h6.369c2.553 0 4.566-2.259 4.566-4.637 0-2.68-2.043-4.908-4.566-4.908h-6.369zm16.552 22.01c-1.231-.693-1.982-2.048-1.231-3.674L185.35 2.348c1.052-2.047 3.786-2.107 4.747 0l10.784 21.437c1.563 2.98-3.034 5.329-4.416 2.378l-1.682-3.372h-14.059l-1.652 3.372c-.6 1.295-2.043 1.566-3.425 1.295zm16.403-9.726l-4.296-9.423-4.687 9.423h8.983zm7.21-13.066c-1.803-2.47 2.282-5.57 4.265-2.56l6.669 9.996 6.79-9.995c2.042-2.8 6.278 0 4.265 2.559l-8.652 12.494v7.919c0 3.372-5.047 3.281-5.047-.03V17.19l-8.29-12.524z" opacity=".7"/>
    </g>
</svg>
