<svg xmlns="http://www.w3.org/2000/svg" width="41" height="40" viewBox="0 0 41 40">
    <g fill="#4990E2" fill-rule="nonzero">
        <path d="M39.763 16.172L21.63.588a2.096 2.096 0 0 0-2.733 0L.764 16.172a2.195 2.195 0 0 0 1.43 3.859h2.331v18.225c0 .919.745 1.663 1.663 1.663h28.15c.92 0 1.664-.744 1.664-1.663V20.031h2.33a2.195 2.195 0 0 0 1.43-3.86zm-19.5 20.5c-6.912 0-12.516-5.604-12.516-12.517 0-6.913 5.604-12.516 12.517-12.516 6.912 0 12.516 5.604 12.516 12.516 0 6.913-5.604 12.517-12.516 12.517z"/>
        <path d="M27.68 20.605c-.407 0-.761.224-.948.554l-3.747-.81-1.914-3.288a1.09 1.09 0 1 0-1.616 0l-1.913 3.288-3.747.81a1.089 1.089 0 0 0-2.037.536 1.09 1.09 0 0 0 1.556.984l2.547 2.847-.388 3.807a1.09 1.09 0 1 0 1.285.938l3.506-1.546 3.55 1.567a1.09 1.09 0 1 0 1.239-.966l-.386-3.8 2.546-2.847a1.09 1.09 0 1 0 .467-2.074z"/>
    </g>
</svg>
