<svg xmlns="http://www.w3.org/2000/svg" width="40" height="35" viewBox="0 0 40 35">
    <g fill="#4990E2" fill-rule="nonzero">
        <path d="M38.063.033H1.937C.867.033 0 .9 0 1.97v22.663c0 1.07.867 1.937 1.937 1.937h13.51v4.39H10.19c-.988 0-1.791.803-1.791 1.791 0 .988.803 1.792 1.791 1.792h19.62c.987 0 1.791-.804 1.791-1.792s-.804-1.791-1.792-1.791h-5.257v-4.39h13.51c1.07 0 1.938-.867 1.938-1.937V1.97C40 .9 39.132.033 38.063.033zm-.969 23.632H2.906V2.938h34.188v20.727z"/>
        <path d="M9.161 14.396l6.11 2.841a1.182 1.182 0 0 0 1.14-.076c.343-.22.548-.594.548-1.001v-.031c0-.46-.27-.883-.687-1.077l-3.822-1.775 3.822-1.776c.417-.194.687-.617.687-1.077v-.03a1.181 1.181 0 0 0-1.189-1.187c-.172 0-.345.038-.5.11l-6.109 2.84a1.192 1.192 0 0 0-.687 1.077v.085c0 .46.27.882.687 1.077zM17.013 20.183c.223.305.582.487.96.487h.03c.518 0 .972-.332 1.13-.825l4.025-12.47c.116-.36.051-.758-.171-1.063a1.192 1.192 0 0 0-.96-.487h-.03c-.518 0-.973.331-1.13.824L16.84 19.121c-.115.36-.05.757.172 1.062zM23.04 10.424c0 .46.27.882.688 1.077l3.821 1.776-3.821 1.775a1.192 1.192 0 0 0-.687 1.077v.03a1.182 1.182 0 0 0 1.187 1.188c.174 0 .342-.037.501-.11l6.11-2.842c.417-.194.686-.617.686-1.076v-.085c0-.46-.27-.883-.687-1.077l-6.11-2.84a1.192 1.192 0 0 0-1.138.075c-.344.219-.55.593-.55 1.001v.031z"/>
    </g>
</svg>
