<svg xmlns="http://www.w3.org/2000/svg" width="21" height="25" viewBox="0 0 21 25">
    <g fill="none" fill-rule="evenodd">
        <path fill="#4990E2" fill-rule="nonzero" d="M19.795 4.225c-1.834 0-3.448-1.49-3.475-3.32a.738.738 0 0 0-.737-.726H4.647c-.403 0-.68.324-.687.726-.027 1.83-1.49 3.32-3.324 3.32-.407 0-.636.33-.636.736v10.518c0 6.227 9.597 9.189 10.01 9.311.07.021.04.031.11.031.088 0 .277-.015.36-.047.411-.154 10.152-3.837 10.152-9.29V4.96c0-.406-.43-.736-.837-.736z"/>
        <path stroke="#F8F8F8" stroke-linecap="square" d="M10.5.5v24M20.5 12.5H.5"/>
        <path fill="#FFF" fill-rule="nonzero" d="M6.665 19.61c-1.282-.643-2.27-1.546-2.855-2.613a.368.368 0 0 0-.646.353c.658 1.199 1.754 2.207 3.17 2.917a.368.368 0 0 0 .33-.657zM3.2 15.52a4.172 4.172 0 0 1-.076-.313.369.369 0 0 0-.724.135s.025.14.092.375a.368.368 0 0 0 .709-.198z"/>
    </g>
</svg>
