<svg xmlns="http://www.w3.org/2000/svg" width="40" height="38" viewBox="0 0 40 38">
    <g fill="#4990E2" fill-rule="nonzero">
        <path d="M34.776 13.053c-.27 1.012-.637 2.98-.776 4.025a.113.113 0 0 0 .024.032c.196.066.384.155.564.261.147.09.277.188.4.302 0-.114.008-.22.008-.334.024-1.094.302-3.143.49-4.286.057-.343.122-.702.236-1.053-.514.171-.808.547-.946 1.053zM27.756 18.016c1.127-1.485 1.74-3.077 1.813-4.726.057-1.102.049-2.22.049-3.306V5.086c0-.947-.58-1.592-1.551-1.723l-.417-.049c-.555-.065-1.085-.13-1.592-.245-1.836-.408-3.608-1.24-5.575-2.612C20.173.245 19.83 0 19.323 0c-.505 0-.848.245-1.15.457-2.637 1.82-5.004 2.735-7.445 2.882-.645.032-1.714.302-1.714 1.82l-.009 2.45a334.2 334.2 0 0 0 .009 4.954c0 .661.081 1.355.253 2.123.367 1.649 1.24 3.159 2.669 4.612 1.747 1.771 3.951 3.143 6.784 4.204.187.065.383.09.587.09.278 0 .556-.065.751-.163l.719-.31a34.086 34.086 0 0 0 1.788-.817c2.212-1.16 3.918-2.571 5.191-4.286zm-6.334 2.082c-.54.27-1.094.506-1.641.743-.155.065-.31.13-.474.204v-9.029h-7.82c-.008-1.47-.008-2.938-.008-4.4l.008-1.853c2.604-.27 5.118-1.257 7.82-3.077v9.338h7.813c-.009.384-.009.776-.033 1.152-.049 1.159-.482 2.244-1.322 3.355-1.045 1.42-2.474 2.596-4.343 3.567zM32.898 16.371l.065-.498c.098-.734.523-2.114.686-2.873-.506.171-.8.539-.93 1.045-.164.628-.613 1.967-.719 2.645.286-.106.588-.163.89-.18 0-.049 0-.09.008-.139zM1.096 23.076c.188 1.265.784 2.31 1.665 3.24l5.96 7.176.114 3.306c0 .294.237.53.53.539l6.27.032c.294 0 .53-.236.539-.53l.22-4.008a8.78 8.78 0 0 0 .065-1.176c0-.408-.032-.686-.032-.686-.294-1.248-.743-3.681-4.074-6.09a6.146 6.146 0 0 1-1.02-.987l-3.706-4.767c-.384-.645-1.298-.866-2-.441-.702.424-.923 1.347-.539 1.992l3.567 5.82a.393.393 0 0 1-.66.425l-.148-.22s-2.694-3.683-4.04-6.605a4.468 4.468 0 0 1-.417-1.649c-.008-.09-.008-.212-.016-.302-.041-1.33-.253-3.216-.474-4.53-.065-.368-.253-1.748-.637-2.188-.546-.62-1.281-.482-1.746-.106-.384.31-.564.824-.507 1.314L1.047 22.7l.05.376z"/>
        <path d="M38.943 11.32c-.465-.375-1.2-.514-1.747.107-.392.44-.58 1.82-.637 2.187-.22 1.315-.44 3.209-.473 4.531 0 .09-.008.212-.017.302a4.468 4.468 0 0 1-.416 1.649c-1.339 2.914-4.04 6.604-4.04 6.604l-.148.22a.393.393 0 0 1-.661-.424l3.567-5.82c.384-.645.164-1.56-.538-1.992-.702-.433-1.617-.212-2 .44l-3.706 4.768c-.245.31-.703.76-1.02.988-3.34 2.4-3.78 4.84-4.074 6.09 0 0-.025.277-.033.685 0 .335.008.751.065 1.176l.22 4.008c0 .294.246.53.54.53l6.269-.032c.294 0 .53-.245.53-.539l.115-3.306 5.959-7.176c.882-.93 1.478-1.983 1.665-3.24l.057-.368 1.037-10.065c.05-.498-.122-1.004-.514-1.322zM3 12c.106.36.18.71.237 1.053.196 1.135.473 3.192.49 4.286 0 .114.008.22.008.334.122-.106.253-.212.4-.302.18-.114.375-.195.563-.26a.113.113 0 0 1 .024-.033c-.138-1.037-.506-3.005-.775-4.025-.139-.514-.433-.89-.947-1.053zM5 13c.163.76.588 2.139.686 2.873l.065.498a.887.887 0 0 1 .008.147c.302.009.604.074.89.18-.098-.678-.547-2.016-.718-2.645C5.8 13.54 5.506 13.171 5 13z"/>
    </g>
</svg>
