<svg xmlns="http://www.w3.org/2000/svg" width="403" height="403" viewBox="0 0 403 403">
    <g fill="none" fill-rule="evenodd" transform="translate(1 1)">
        <circle cx="83" cy="37" r="8" fill="#FFF"/>
        <circle cx="83" cy="37" r="15" stroke="#FFF"/>
        <circle cx="200.5" cy="200.5" r="200.5" stroke="#FFF"/>
        <circle cx="200.5" cy="200.5" r="150.5" stroke="#FFF"/>
        <circle cx="201" cy="201" r="117" stroke="#FFF"/>
        <path stroke="#FFF" d="M158.7 155.8h88.4c7.2 0 13 5.9 13 13V234c0 7.2-5.9 13-13 13h-88.4c-7.2 0-13-5.9-13-13v-65.1c0-7.2 5.8-13.1 13-13.1z"/>
        <path fill="#5CACF5" stroke="#FFF" d="M159.9 162.9h85.9c3.9 0 7.2 3.2 7.2 7.2v62.7c0 3.9-3.2 7.2-7.2 7.2h-85.9c-3.9 0-7.2-3.2-7.2-7.2v-62.7c.1-4 3.3-7.2 7.2-7.2z"/>
        <path stroke="#FFF" d="M218.2 184.9h44c2.6 0 4.7 2.1 4.7 4.7v23.7c0 2.6-2.1 4.7-4.7 4.7h-44c-2.6 0-4.7-2.1-4.7-4.7v-23.7c0-2.6 2.1-4.7 4.7-4.7z"/>
        <path d="M218.2 184.9h44c2.6 0 4.7 2.1 4.7 4.7v23.7c0 2.6-2.1 4.7-4.7 4.7h-44c-2.6 0-4.7-2.1-4.7-4.7v-23.7c0-2.6 2.1-4.7 4.7-4.7z"/>
        <path fill="#FFF" d="M229.9 211.2c5.3 0 9.7-4.4 9.7-9.7 0-5.3-4.4-9.7-9.7-9.7-5.3 0-9.7 4.4-9.7 9.7 0 5.3 4.4 9.7 9.7 9.7z"/>
        <circle cx="313" cy="99" r="8" fill="#ADD5F9"/>
        <circle cx="313" cy="99" r="15" stroke="#ADD5F9"/>
        <circle cx="113" cy="279" r="8" fill="#ADD5F9"/>
        <circle cx="113" cy="279" r="15" stroke="#ADD5F9"/>
    </g>
</svg>
