<?xml version="1.0" encoding="utf-8"?>
<!-- Generator: Adobe Illustrator 21.0.0, SVG Export Plug-In . SVG Version: 6.00 Build 0)  -->
<svg version="1.1" id="Layer_1" xmlns="http://www.w3.org/2000/svg" xmlns:xlink="http://www.w3.org/1999/xlink" x="0px" y="0px"
	 viewBox="0 0 422.4 153.1" style="enable-background:new 0 0 422.4 153.1;" xml:space="preserve">
<style type="text/css">
	.st0{fill:#6D9933;}
	.st1{fill:#5F8B2F;}
	.st2{fill:#38A0DA;}
	.st3{opacity:0.5;fill:#362112;}
	.st4{opacity:0.9;}
	.st5{fill:#2F7C93;}
	.st6{fill:#AD5D17;}
	.st7{fill:#9AB4CF;}
	.st8{fill:#ABC9E6;}
	.st9{fill:#ACC687;}
	.st10{fill:#3793B0;}
	.st11{fill:#C87224;}
	.st12{fill:#BAD692;}
	.st13{fill:#FFFFFF;}
</style>
<g>
	<g>
		<path class="st0" d="M258.2,34.8c-2-0.4-4.2-0.3-6.2,0.5c0,0-0.1,0-0.1,0.1L258.2,34.8z"/>
	</g>
	<g>
		<polygon class="st1" points="185.9,43.1 195.8,43.1 225.6,33 		"/>
	</g>
	<path class="st2" d="M94.6,45.6c0.7,16.8,2.5,58.4,2.9,65.9c0.3,7.6-1.7,15.6,17.2,14.7c18.9-0.8,82.3-6,98.2-4.9
		c15.9,1,109.8,0.7,112.1-9.7c2.3-10.4-4.2-80.3-7.1-83.3c-2.9-3-7.3-2.1-27.5,0.2c-20.2,2.3-158.9,8.6-175.6,6.2
		C98.2,32.4,94.4,40.1,94.6,45.6z"/>
	<path class="st3" d="M204.2,119.9c1.2-24.7-7-76.8-5.7-85.1l18.7-0.8c-1.4,8.3,7,61.3,5.9,86L204.2,119.9z"/>
	<g class="st4">
		<path class="st3" d="M98.9,113c-0.3-7.6-2.1-49.1-2.9-65.9c-0.2-5.5,3.6-13.2,20.2-10.9c16.6,2.4,155.4-4,175.6-6.2
			c17.8-2,23.4-2.9,26.4-1.1c-0.1-0.3-0.2-0.5-0.3-0.6c-2.9-3-7.3-2.1-27.5,0.2c-20.2,2.3-158.9,8.6-175.6,6.2
			c-16.6-2.4-20.4,5.4-20.2,10.9c0.7,16.8,2.5,58.4,2.9,65.9c0.2,4.6-0.5,9.3,3.2,12.2C98.6,120.9,99.1,116.9,98.9,113z"/>
	</g>
	<path class="st3" d="M317.9,28.3c-0.4-0.4-0.7-0.7-1.2-0.9c3,8.7,8.8,72.5,6.6,82.4c-2.3,10.4-96.2,10.7-112.1,9.7
		c-15.9-1-79.3,4.1-98.2,4.9c-7.5,0.3-11.7-0.7-14-2.6c1.8,3,6,4.8,15.7,4.4c18.9-0.8,82.3-6,98.2-4.9c15.9,1,109.8,0.7,112.1-9.7
		C327.2,101.2,320.8,31.3,317.9,28.3z"/>
	<g>
		<g>
			<path class="st5" d="M314.1,33.7c-0.2,0-0.4-0.2-0.5-0.4c-0.1-0.4-0.2-0.8-0.3-1.1c-0.2,0-0.6-0.1-1.1-0.1
				c-0.3,0-0.5-0.2-0.5-0.5c0-0.3,0.2-0.5,0.5-0.5c0,0,0,0,0,0c0.7,0,1.2,0.1,1.6,0.1c0.2,0,0.3,0.2,0.4,0.4
				c0.1,0.4,0.2,0.9,0.4,1.5c0.1,0.3-0.1,0.5-0.4,0.6C314.1,33.7,314.1,33.7,314.1,33.7z"/>
		</g>
		<g>
			<path class="st5" d="M320.3,105.6C320.3,105.6,320.3,105.6,320.3,105.6c-0.3,0-0.5-0.2-0.5-0.5c0-0.5,0-1,0-1.5c0-0.5,0-1,0-1.5
				c0-0.3,0.2-0.5,0.5-0.5c0,0,0,0,0,0c0.3,0,0.5,0.2,0.5,0.5c0,0.5,0,1,0,1.5c0,0.5,0,1,0,1.5C320.8,105.4,320.6,105.6,320.3,105.6
				z M320.2,99.6c-0.3,0-0.5-0.2-0.5-0.5c0-1-0.1-2-0.1-3c0-0.3,0.2-0.5,0.5-0.5c0,0,0,0,0,0c0.3,0,0.5,0.2,0.5,0.5
				c0,1,0.1,2.1,0.1,3C320.8,99.4,320.5,99.6,320.2,99.6C320.3,99.6,320.2,99.6,320.2,99.6z M320,93.6c-0.3,0-0.5-0.2-0.5-0.5
				c0-1-0.1-2-0.2-3c0-0.3,0.2-0.5,0.5-0.5c0.3,0,0.5,0.2,0.5,0.5c0.1,1,0.1,2,0.2,3C320.5,93.3,320.3,93.6,320,93.6
				C320,93.6,320,93.6,320,93.6z M319.7,87.6c-0.3,0-0.5-0.2-0.5-0.5c-0.1-1-0.1-2-0.2-3c0-0.3,0.2-0.5,0.5-0.5
				c0.3,0,0.5,0.2,0.5,0.5c0.1,1,0.1,2,0.2,3C320.2,87.3,320,87.6,319.7,87.6C319.7,87.6,319.7,87.6,319.7,87.6z M319.3,81.6
				c-0.3,0-0.5-0.2-0.5-0.5c-0.1-1-0.1-2-0.2-3c0-0.3,0.2-0.5,0.5-0.5c0.3,0,0.5,0.2,0.5,0.5c0.1,1,0.1,2,0.2,3
				C319.8,81.3,319.6,81.5,319.3,81.6C319.3,81.6,319.3,81.6,319.3,81.6z M318.8,75.6c-0.3,0-0.5-0.2-0.5-0.5l-0.2-3
				c0-0.3,0.2-0.5,0.5-0.5c0.3,0,0.5,0.2,0.5,0.5l0.2,3C319.4,75.3,319.2,75.5,318.8,75.6C318.9,75.6,318.9,75.6,318.8,75.6z
				 M318.3,69.5c-0.3,0-0.5-0.2-0.5-0.5c-0.1-1-0.2-2-0.3-3c0-0.3,0.2-0.5,0.5-0.5c0.3,0,0.5,0.2,0.5,0.5c0.1,1,0.2,2,0.3,3
				C318.9,69.3,318.7,69.5,318.3,69.5C318.4,69.5,318.4,69.5,318.3,69.5z M317.8,63.6c-0.3,0-0.5-0.2-0.5-0.5c-0.1-1-0.2-2-0.3-3
				c0-0.3,0.2-0.5,0.4-0.5c0.3,0,0.5,0.2,0.5,0.4c0.1,1,0.2,2,0.3,3C318.3,63.3,318.1,63.5,317.8,63.6
				C317.8,63.6,317.8,63.6,317.8,63.6z M317.2,57.6c-0.3,0-0.5-0.2-0.5-0.4c-0.1-1-0.2-2-0.3-3c0-0.3,0.2-0.5,0.4-0.6
				c0.3,0,0.5,0.2,0.6,0.4c0.1,1,0.2,2,0.3,3C317.7,57.3,317.5,57.5,317.2,57.6C317.3,57.6,317.2,57.6,317.2,57.6z M316.6,51.6
				c-0.3,0-0.5-0.2-0.5-0.4c-0.1-1-0.2-2-0.3-3c0-0.3,0.2-0.5,0.4-0.6c0.3,0,0.5,0.2,0.6,0.4c0.1,1,0.2,2,0.3,3
				C317.1,51.3,316.9,51.5,316.6,51.6C316.6,51.6,316.6,51.6,316.6,51.6z M315.9,45.6c-0.2,0-0.5-0.2-0.5-0.4c-0.1-1-0.3-2-0.4-3
				c0-0.3,0.2-0.5,0.4-0.6c0.3,0,0.5,0.2,0.6,0.4c0.1,1,0.3,2,0.4,3C316.4,45.3,316.2,45.6,315.9,45.6
				C315.9,45.6,315.9,45.6,315.9,45.6z M315.1,39.6c-0.2,0-0.5-0.2-0.5-0.4c-0.2-1.1-0.3-2.1-0.5-3c0-0.3,0.1-0.5,0.4-0.6
				c0.3,0,0.5,0.1,0.6,0.4c0.2,0.9,0.3,1.9,0.5,3C315.6,39.3,315.4,39.6,315.1,39.6C315.1,39.6,315.1,39.6,315.1,39.6z"/>
		</g>
		<g>
			<path class="st5" d="M318.7,110.6c-0.2,0-0.4-0.1-0.5-0.3c-0.1-0.3,0-0.5,0.3-0.6c0.4-0.2,0.8-0.3,1.1-0.5c0-0.4,0.1-0.8,0.1-1.2
				c0-0.3,0.3-0.5,0.5-0.5c0.3,0,0.5,0.3,0.5,0.5c0,0.6-0.1,1.1-0.1,1.5c0,0.2-0.1,0.3-0.3,0.4c-0.4,0.2-0.9,0.4-1.4,0.6
				C318.8,110.6,318.8,110.6,318.7,110.6z"/>
		</g>
		<g>
			<path class="st5" d="M112.1,121.7c-0.9,0-1.7,0-2.5-0.1c-0.3,0-0.5-0.3-0.5-0.5c0-0.3,0.2-0.5,0.5-0.5c0.7,0,1.6,0.1,2.4,0.1
				l0.5,0c0.3,0,0.5,0.2,0.5,0.5c0,0.3-0.2,0.5-0.5,0.5L112.1,121.7z M115.6,121.6c-0.3,0-0.5-0.2-0.5-0.5c0-0.3,0.2-0.5,0.5-0.5
				c0.9,0,1.9-0.1,3-0.2c0.3,0,0.5,0.2,0.5,0.5c0,0.3-0.2,0.5-0.5,0.5C117.5,121.5,116.5,121.5,115.6,121.6
				C115.6,121.6,115.6,121.6,115.6,121.6z M121.6,121.2c-0.3,0-0.5-0.2-0.5-0.5c0-0.3,0.2-0.5,0.5-0.5l3-0.2c0.3,0,0.5,0.2,0.5,0.5
				c0,0.3-0.2,0.5-0.5,0.5L121.6,121.2C121.6,121.2,121.6,121.2,121.6,121.2z M106.6,121.2c0,0-0.1,0-0.1,0c-1.3-0.3-2.3-0.7-3-1.1
				c-0.2-0.2-0.3-0.5-0.1-0.7c0.2-0.2,0.5-0.3,0.7-0.1c0.4,0.3,1.1,0.7,2.6,1c0.3,0.1,0.4,0.3,0.4,0.6
				C107.1,121.1,106.9,121.2,106.6,121.2z M127.5,120.9c-0.3,0-0.5-0.2-0.5-0.5c0-0.3,0.2-0.5,0.5-0.5l3-0.2c0.3,0,0.5,0.2,0.5,0.5
				c0,0.3-0.2,0.5-0.5,0.5L127.5,120.9C127.6,120.9,127.6,120.9,127.5,120.9z M133.5,120.5c-0.3,0-0.5-0.2-0.5-0.5
				c0-0.3,0.2-0.5,0.5-0.5l3-0.2c0.3,0,0.5,0.2,0.5,0.5c0,0.3-0.2,0.5-0.5,0.5L133.5,120.5C133.5,120.5,133.5,120.5,133.5,120.5z
				 M139.5,120.1c-0.3,0-0.5-0.2-0.5-0.5c0-0.3,0.2-0.5,0.5-0.5l3-0.2l0.1,1L139.5,120.1C139.5,120.1,139.5,120.1,139.5,120.1z
				 M145.5,119.7c-0.3,0-0.5-0.2-0.5-0.5c0-0.3,0.2-0.5,0.5-0.5l3-0.2c0.3,0,0.5,0.2,0.5,0.5c0,0.3-0.2,0.5-0.5,0.5L145.5,119.7
				C145.5,119.7,145.5,119.7,145.5,119.7z M151.5,119.3c-0.3,0-0.5-0.2-0.5-0.5c0-0.3,0.2-0.5,0.5-0.5l3-0.2c0.3,0,0.5,0.2,0.5,0.5
				c0,0.3-0.2,0.5-0.5,0.5L151.5,119.3C151.5,119.3,151.5,119.3,151.5,119.3z M157.4,118.9c-0.3,0-0.5-0.2-0.5-0.5
				c0-0.3,0.2-0.5,0.5-0.5l3-0.2c0.3,0,0.5,0.2,0.5,0.5c0,0.3-0.2,0.5-0.5,0.5L157.4,118.9C157.5,118.9,157.5,118.9,157.4,118.9z
				 M163.4,118.5c-0.3,0-0.5-0.2-0.5-0.5c0-0.3,0.2-0.5,0.5-0.5l3-0.2c0.3,0,0.5,0.2,0.5,0.5c0,0.3-0.2,0.5-0.5,0.5L163.4,118.5
				C163.4,118.5,163.4,118.5,163.4,118.5z M169.4,118.2c-0.3,0-0.5-0.2-0.5-0.5c0-0.3,0.2-0.5,0.5-0.5l3-0.2c0.3,0,0.5,0.2,0.5,0.5
				c0,0.3-0.2,0.5-0.5,0.5L169.4,118.2C169.4,118.2,169.4,118.2,169.4,118.2z M175.4,117.8c-0.3,0-0.5-0.2-0.5-0.5
				c0-0.3,0.2-0.5,0.5-0.5l3-0.2c0.3,0,0.5,0.2,0.5,0.5c0,0.3-0.2,0.5-0.5,0.5L175.4,117.8C175.4,117.8,175.4,117.8,175.4,117.8z
				 M181.4,117.5c-0.3,0-0.5-0.2-0.5-0.5c0-0.3,0.2-0.5,0.5-0.5l3-0.2c0.3,0,0.5,0.2,0.5,0.5c0,0.3-0.2,0.5-0.5,0.5L181.4,117.5
				C181.4,117.5,181.4,117.5,181.4,117.5z M102.8,117.5c-0.3,0-0.5-0.2-0.5-0.5c-0.1-0.8-0.1-1.8-0.1-3c0-0.3,0.2-0.5,0.5-0.5
				c0.3,0,0.5,0.2,0.5,0.5c0,1.2,0,2.2,0.1,3C103.3,117.2,103.1,117.4,102.8,117.5C102.8,117.5,102.8,117.5,102.8,117.5z
				 M187.4,117.2c-0.3,0-0.5-0.2-0.5-0.5c0-0.3,0.2-0.5,0.5-0.5c1,0,2-0.1,3-0.1c0.2,0,0.5,0.2,0.5,0.5c0,0.3-0.2,0.5-0.5,0.5
				C189.4,117.1,188.4,117.1,187.4,117.2C187.4,117.2,187.4,117.2,187.4,117.2z M232.3,117.1C232.3,117.1,232.3,117.1,232.3,117.1
				c-1,0-2,0-3,0c-0.3,0-0.5-0.2-0.5-0.5c0-0.3,0.2-0.5,0.5-0.5c0,0,0,0,0,0c1,0,2,0,3,0c0.3,0,0.5,0.2,0.5,0.5
				C232.8,116.8,232.6,117.1,232.3,117.1z M235.3,117.1c-0.3,0-0.5-0.2-0.5-0.5c0-0.3,0.2-0.5,0.5-0.5c1,0,2,0,3,0c0,0,0,0,0,0
				c0.3,0,0.5,0.2,0.5,0.5c0,0.3-0.2,0.5-0.5,0.5C237.3,117.1,236.3,117.1,235.3,117.1L235.3,117.1z M226.3,117
				C226.3,117,226.3,117,226.3,117c-1,0-2,0-3,0c-0.3,0-0.5-0.2-0.5-0.5c0-0.3,0.2-0.5,0.5-0.5c0,0,0,0,0,0c1,0,2,0,3,0
				c0.3,0,0.5,0.2,0.5,0.5C226.8,116.8,226.6,117,226.3,117z M241.3,117c-0.3,0-0.5-0.2-0.5-0.5c0-0.3,0.2-0.5,0.5-0.5c1,0,2,0,3,0
				c0.2,0,0.5,0.2,0.5,0.5c0,0.3-0.2,0.5-0.5,0.5C243.3,117,242.3,117,241.3,117C241.3,117,241.3,117,241.3,117z M247.3,117
				c-0.3,0-0.5-0.2-0.5-0.5c0-0.3,0.2-0.5,0.5-0.5l3-0.1c0,0,0,0,0,0c0.3,0,0.5,0.2,0.5,0.5c0,0.3-0.2,0.5-0.5,0.5L247.3,117
				C247.3,117,247.3,117,247.3,117z M220.3,116.9C220.3,116.9,220.3,116.9,220.3,116.9c-1.1,0-2.1,0-3-0.1c-0.3,0-0.5-0.2-0.5-0.5
				c0-0.3,0.2-0.5,0.5-0.5c0,0,0,0,0,0c0.9,0,1.9,0.1,3,0.1c0.3,0,0.5,0.2,0.5,0.5C220.8,116.7,220.6,116.9,220.3,116.9z
				 M193.3,116.9c-0.3,0-0.5-0.2-0.5-0.5c0-0.3,0.2-0.5,0.5-0.5c1,0,2-0.1,3-0.1c0.3,0,0.5,0.2,0.5,0.5c0,0.3-0.2,0.5-0.5,0.5
				C195.4,116.8,194.4,116.8,193.3,116.9C193.4,116.9,193.4,116.9,193.3,116.9z M253.2,116.8c-0.3,0-0.5-0.2-0.5-0.5
				c0-0.3,0.2-0.5,0.5-0.5c1,0,2,0,3-0.1c0.3,0,0.5,0.2,0.5,0.5c0,0.3-0.2,0.5-0.5,0.5C255.3,116.8,254.3,116.8,253.2,116.8
				C253.3,116.8,253.3,116.8,253.2,116.8z M214.3,116.7C214.3,116.7,214.3,116.7,214.3,116.7c-0.4,0-0.8,0-1.2-0.1
				c-0.6,0-1.2-0.1-1.8-0.1c-0.3,0-0.5-0.2-0.5-0.5c0-0.3,0.2-0.5,0.5-0.5c0.7,0,1.3,0.1,1.9,0.1c0.3,0,0.7,0,1.1,0.1
				c0.3,0,0.5,0.2,0.5,0.5C214.8,116.5,214.6,116.7,214.3,116.7z M259.2,116.7c-0.3,0-0.5-0.2-0.5-0.5c0-0.3,0.2-0.5,0.5-0.5l3-0.1
				c0.3,0,0.5,0.2,0.5,0.5c0,0.3-0.2,0.5-0.5,0.5L259.2,116.7C259.3,116.7,259.2,116.7,259.2,116.7z M199.3,116.7
				c-0.3,0-0.5-0.2-0.5-0.5c0-0.3,0.2-0.5,0.5-0.5c1,0,2-0.1,3-0.1c0.3,0,0.5,0.2,0.5,0.5c0,0.3-0.2,0.5-0.5,0.5
				C201.4,116.6,200.4,116.6,199.3,116.7C199.3,116.7,199.3,116.7,199.3,116.7z M205.3,116.5c-0.3,0-0.5-0.2-0.5-0.5
				c0-0.3,0.2-0.5,0.5-0.5c0.7,0,1.4,0,2.1,0l0.9,0c0.3,0,0.5,0.2,0.5,0.5c0,0.3-0.2,0.5-0.5,0.5c0,0,0,0,0,0l-0.9,0
				C206.8,116.5,206.1,116.5,205.3,116.5C205.3,116.5,205.3,116.5,205.3,116.5z M265.2,116.5c-0.3,0-0.5-0.2-0.5-0.5
				c0-0.3,0.2-0.5,0.5-0.5c1,0,2-0.1,3-0.1c0.3,0,0.5,0.2,0.5,0.5c0,0.3-0.2,0.5-0.5,0.5C267.2,116.4,266.2,116.4,265.2,116.5
				C265.2,116.5,265.2,116.5,265.2,116.5z M271.2,116.2c-0.3,0-0.5-0.2-0.5-0.5c0-0.3,0.2-0.5,0.5-0.5c1,0,2-0.1,3-0.1
				c0.3,0,0.5,0.2,0.5,0.5c0,0.3-0.2,0.5-0.5,0.5C273.3,116.2,272.3,116.2,271.2,116.2C271.2,116.2,271.2,116.2,271.2,116.2z
				 M277.2,115.9c-0.3,0-0.5-0.2-0.5-0.5c0-0.3,0.2-0.5,0.5-0.5c1-0.1,2-0.1,3-0.2c0.3,0,0.5,0.2,0.5,0.5c0,0.3-0.2,0.5-0.5,0.5
				C279.2,115.8,278.3,115.9,277.2,115.9C277.2,115.9,277.2,115.9,277.2,115.9z M283.2,115.6c-0.3,0-0.5-0.2-0.5-0.5
				c0-0.3,0.2-0.5,0.5-0.5c1-0.1,2-0.1,3-0.2c0.3,0,0.5,0.2,0.5,0.5c0,0.3-0.2,0.5-0.5,0.5C285.2,115.5,284.2,115.5,283.2,115.6
				C283.2,115.6,283.2,115.6,283.2,115.6z M289.2,115.2c-0.3,0-0.5-0.2-0.5-0.5c0-0.3,0.2-0.5,0.5-0.5c1-0.1,2-0.2,3-0.2
				c0.3,0,0.5,0.2,0.5,0.5c0,0.3-0.2,0.5-0.5,0.5C291.2,115,290.2,115.1,289.2,115.2C289.2,115.2,289.2,115.2,289.2,115.2z
				 M295.1,114.7c-0.3,0-0.5-0.2-0.5-0.5c0-0.3,0.2-0.5,0.5-0.5c1-0.1,2-0.2,3-0.3c0.3,0,0.5,0.2,0.5,0.4c0,0.3-0.2,0.5-0.4,0.5
				C297.2,114.5,296.2,114.6,295.1,114.7C295.2,114.7,295.1,114.7,295.1,114.7z M301.1,114c-0.2,0-0.5-0.2-0.5-0.4
				c0-0.3,0.2-0.5,0.4-0.6c1-0.1,2-0.2,3-0.4c0.3,0,0.5,0.2,0.6,0.4c0,0.3-0.2,0.5-0.4,0.6C303.2,113.8,302.2,113.9,301.1,114
				C301.1,114,301.1,114,301.1,114z M307,113.2c-0.2,0-0.5-0.2-0.5-0.4c0-0.3,0.1-0.5,0.4-0.6c1.1-0.2,2-0.3,2.9-0.5
				c0.3,0,0.5,0.1,0.6,0.4c0,0.3-0.1,0.5-0.4,0.6C309.2,112.9,308.2,113.1,307,113.2C307.1,113.2,307,113.2,307,113.2z M312.9,112.2
				c-0.2,0-0.4-0.2-0.5-0.4c-0.1-0.3,0.1-0.5,0.4-0.6c1-0.2,2-0.4,2.9-0.7c0.3-0.1,0.5,0.1,0.6,0.4c0.1,0.3-0.1,0.5-0.4,0.6
				c-0.9,0.2-1.9,0.5-2.9,0.7C313,112.2,312.9,112.2,312.9,112.2z M102.6,111.5c-0.3,0-0.5-0.2-0.5-0.5l-0.1-3
				c0-0.3,0.2-0.5,0.5-0.5c0.3,0,0.5,0.2,0.5,0.5l0.1,3C103.1,111.2,102.9,111.5,102.6,111.5C102.6,111.5,102.6,111.5,102.6,111.5z
				 M102.4,105.5c-0.3,0-0.5-0.2-0.5-0.5l-0.1-3c0-0.3,0.2-0.5,0.5-0.5c0.3,0,0.5,0.2,0.5,0.5l0.1,3
				C102.9,105.2,102.6,105.5,102.4,105.5C102.4,105.5,102.4,105.5,102.4,105.5z M102.1,99.5c-0.3,0-0.5-0.2-0.5-0.5l-0.1-3
				c0-0.3,0.2-0.5,0.5-0.5c0.3,0,0.5,0.2,0.5,0.5l0.1,3C102.6,99.2,102.4,99.5,102.1,99.5C102.1,99.5,102.1,99.5,102.1,99.5z
				 M101.8,93.5c-0.3,0-0.5-0.2-0.5-0.5l-0.1-3c0-0.3,0.2-0.5,0.5-0.5c0.3,0,0.5,0.2,0.5,0.5l0.1,3
				C102.3,93.3,102.1,93.5,101.8,93.5C101.8,93.5,101.8,93.5,101.8,93.5z M101.6,87.5c-0.3,0-0.5-0.2-0.5-0.5l-0.1-3
				c0-0.3,0.2-0.5,0.5-0.5c0.3,0,0.5,0.2,0.5,0.5l0.1,3C102.1,87.3,101.9,87.5,101.6,87.5C101.6,87.5,101.6,87.5,101.6,87.5z
				 M101.3,81.5c-0.3,0-0.5-0.2-0.5-0.5l-0.1-3c0-0.3,0.2-0.5,0.5-0.5c0.3,0,0.5,0.2,0.5,0.5l0.1,3
				C101.8,81.3,101.6,81.5,101.3,81.5C101.3,81.5,101.3,81.5,101.3,81.5z M101.1,75.5c-0.3,0-0.5-0.2-0.5-0.5l-0.1-3
				c0-0.3,0.2-0.5,0.5-0.5c0.3,0,0.5,0.2,0.5,0.5l0.1,3C101.6,75.3,101.4,75.5,101.1,75.5C101.1,75.5,101.1,75.5,101.1,75.5z
				 M100.8,69.6c-0.3,0-0.5-0.2-0.5-0.5l-0.1-3c0-0.3,0.2-0.5,0.5-0.5c0.3,0,0.5,0.2,0.5,0.5l0.1,3
				C101.3,69.3,101.1,69.6,100.8,69.6C100.8,69.6,100.8,69.6,100.8,69.6z M100.5,63.6c-0.3,0-0.5-0.2-0.5-0.5l-0.1-3
				c0-0.3,0.2-0.5,0.5-0.5c0.3,0,0.5,0.2,0.5,0.5l0.1,3C101,63.3,100.8,63.6,100.5,63.6C100.5,63.6,100.5,63.6,100.5,63.6z
				 M100.3,57.6c-0.3,0-0.5-0.2-0.5-0.5l-0.1-3c0-0.3,0.2-0.5,0.5-0.5c0.3,0,0.5,0.2,0.5,0.5l0.1,3
				C100.8,57.3,100.6,57.6,100.3,57.6C100.3,57.6,100.3,57.6,100.3,57.6z M100,51.6c-0.3,0-0.5-0.2-0.5-0.5l-0.1-3
				c0-0.3,0.2-0.5,0.5-0.5c0.3,0,0.5,0.2,0.5,0.5l0.1,3C100.5,51.4,100.3,51.6,100,51.6C100,51.6,100,51.6,100,51.6z M99.8,45.6
				c-0.3,0-0.5-0.2-0.5-0.5v0c0-1.2,0.3-2.2,0.9-3.1c0.2-0.2,0.5-0.3,0.7-0.1c0.2,0.2,0.3,0.5,0.1,0.7c-0.5,0.7-0.7,1.5-0.7,2.5
				C100.3,45.4,100,45.6,99.8,45.6z M102.9,41c-0.2,0-0.4-0.1-0.5-0.3c-0.1-0.3,0-0.5,0.3-0.7c0.8-0.4,1.9-0.7,3-0.8
				c0.3,0,0.5,0.1,0.6,0.4c0,0.3-0.1,0.5-0.4,0.6c-1.1,0.2-2,0.4-2.8,0.8C103.1,41,103,41,102.9,41z M129.7,40.9L129.7,40.9
				c-1,0-2,0-3,0c-0.3,0-0.5-0.2-0.5-0.5c0-0.3,0.3-0.5,0.5-0.5c1,0,2,0,3,0c0.3,0,0.5,0.2,0.5,0.5C130.2,40.7,130,40.9,129.7,40.9z
				 M132.7,40.9c-0.3,0-0.5-0.2-0.5-0.5c0-0.3,0.2-0.5,0.5-0.5c1,0,2,0,3,0c0,0,0,0,0,0c0.3,0,0.5,0.2,0.5,0.5
				c0,0.3-0.2,0.5-0.5,0.5C134.7,40.9,133.7,40.9,132.7,40.9C132.7,40.9,132.7,40.9,132.7,40.9z M123.7,40.9
				C123.7,40.9,123.7,40.9,123.7,40.9c-1.1,0-2.1,0-3-0.1c-0.3,0-0.5-0.2-0.5-0.5c0-0.3,0.2-0.5,0.5-0.5c0.9,0,1.9,0.1,3,0.1
				c0.3,0,0.5,0.2,0.5,0.5C124.2,40.6,124,40.9,123.7,40.9z M138.7,40.9c-0.3,0-0.5-0.2-0.5-0.5c0-0.3,0.2-0.5,0.5-0.5l3,0
				c0.2,0,0.5,0.2,0.5,0.5c0,0.3-0.2,0.5-0.5,0.5L138.7,40.9C138.7,40.9,138.7,40.9,138.7,40.9z M144.7,40.8c-0.3,0-0.5-0.2-0.5-0.5
				c0-0.3,0.2-0.5,0.5-0.5l3-0.1c0.3,0,0.5,0.2,0.5,0.5c0,0.3-0.2,0.5-0.5,0.5L144.7,40.8C144.7,40.8,144.7,40.8,144.7,40.8z
				 M117.7,40.7C117.7,40.7,117.7,40.7,117.7,40.7c-1.2-0.1-2.2-0.1-3-0.2c-0.3,0-0.5-0.3-0.4-0.6c0-0.3,0.3-0.5,0.6-0.4
				c0.8,0.1,1.8,0.2,3,0.2c0.3,0,0.5,0.3,0.5,0.5C118.2,40.5,118,40.7,117.7,40.7z M150.7,40.6c-0.3,0-0.5-0.2-0.5-0.5
				c0-0.3,0.2-0.5,0.5-0.5l3-0.1c0.3,0,0.5,0.2,0.5,0.5c0,0.3-0.2,0.5-0.5,0.5L150.7,40.6C150.7,40.6,150.7,40.6,150.7,40.6z
				 M156.7,40.5c-0.3,0-0.5-0.2-0.5-0.5c0-0.3,0.2-0.5,0.5-0.5l3-0.1c0.3,0,0.5,0.2,0.5,0.5c0,0.3-0.2,0.5-0.5,0.5L156.7,40.5
				C156.7,40.5,156.7,40.5,156.7,40.5z M162.7,40.3c-0.3,0-0.5-0.2-0.5-0.5c0-0.3,0.2-0.5,0.5-0.5l3-0.1c0.2,0,0.5,0.2,0.5,0.5
				c0,0.3-0.2,0.5-0.5,0.5L162.7,40.3C162.7,40.3,162.7,40.3,162.7,40.3z M168.7,40.2c-0.3,0-0.5-0.2-0.5-0.5c0-0.3,0.2-0.5,0.5-0.5
				l3-0.1c0.3,0,0.5,0.2,0.5,0.5c0,0.3-0.2,0.5-0.5,0.5L168.7,40.2C168.7,40.2,168.7,40.2,168.7,40.2z M111.8,40.1
				C111.8,40.1,111.7,40.1,111.8,40.1c-1-0.1-1.9-0.1-2.7-0.1l-0.3,0c0,0,0,0,0,0c-0.3,0-0.5-0.2-0.5-0.5c0-0.3,0.2-0.5,0.5-0.5
				l0.3,0c0.9,0,1.8,0,2.8,0.1c0.3,0,0.5,0.3,0.5,0.5C112.2,39.9,112,40.1,111.8,40.1z M174.7,40c-0.3,0-0.5-0.2-0.5-0.5
				c0-0.3,0.2-0.5,0.5-0.5l3-0.1c0.3,0,0.5,0.2,0.5,0.5c0,0.3-0.2,0.5-0.5,0.5L174.7,40C174.7,40,174.7,40,174.7,40z M180.7,39.8
				c-0.3,0-0.5-0.2-0.5-0.5c0-0.3,0.2-0.5,0.5-0.5l3-0.1c0.2,0,0.5,0.2,0.5,0.5c0,0.3-0.2,0.5-0.5,0.5L180.7,39.8
				C180.7,39.8,180.7,39.8,180.7,39.8z M186.7,39.6c-0.3,0-0.5-0.2-0.5-0.5c0-0.3,0.2-0.5,0.5-0.5l3-0.1c0.3,0,0.5,0.2,0.5,0.5
				c0,0.3-0.2,0.5-0.5,0.5L186.7,39.6C186.7,39.6,186.7,39.6,186.7,39.6z M192.7,39.3c-0.3,0-0.5-0.2-0.5-0.5c0-0.3,0.2-0.5,0.5-0.5
				l3-0.1c0.3,0,0.5,0.2,0.5,0.5c0,0.3-0.2,0.5-0.5,0.5L192.7,39.3C192.7,39.3,192.7,39.3,192.7,39.3z M198.7,39.1
				c-0.3,0-0.5-0.2-0.5-0.5c0-0.3,0.2-0.5,0.5-0.5l3-0.1c0.3,0,0.5,0.2,0.5,0.5c0,0.3-0.2,0.5-0.5,0.5L198.7,39.1
				C198.7,39.1,198.7,39.1,198.7,39.1z M204.7,38.9c-0.3,0-0.5-0.2-0.5-0.5c0-0.3,0.2-0.5,0.5-0.5l3-0.1c0.3,0,0.5,0.2,0.5,0.5
				c0,0.3-0.2,0.5-0.5,0.5L204.7,38.9C204.7,38.9,204.7,38.9,204.7,38.9z M210.7,38.6c-0.3,0-0.5-0.2-0.5-0.5c0-0.3,0.2-0.5,0.5-0.5
				l3-0.1c0.3,0,0.5,0.2,0.5,0.5c0,0.3-0.2,0.5-0.5,0.5L210.7,38.6C210.7,38.6,210.7,38.6,210.7,38.6z M216.6,38.4
				c-0.3,0-0.5-0.2-0.5-0.5c0-0.3,0.2-0.5,0.5-0.5l3-0.1c0.3,0,0.5,0.2,0.5,0.5c0,0.3-0.2,0.5-0.5,0.5L216.6,38.4
				C216.7,38.4,216.7,38.4,216.6,38.4z M222.6,38.1c-0.3,0-0.5-0.2-0.5-0.5c0-0.3,0.2-0.5,0.5-0.5l3-0.1c0.3,0,0.5,0.2,0.5,0.5
				c0,0.3-0.2,0.5-0.5,0.5L222.6,38.1C222.6,38.1,222.6,38.1,222.6,38.1z M228.6,37.8c-0.3,0-0.5-0.2-0.5-0.5c0-0.3,0.2-0.5,0.5-0.5
				l3-0.1c0.3,0,0.5,0.2,0.5,0.5c0,0.3-0.2,0.5-0.5,0.5L228.6,37.8C228.6,37.8,228.6,37.8,228.6,37.8z M234.6,37.5
				c-0.3,0-0.5-0.2-0.5-0.5c0-0.3,0.2-0.5,0.5-0.5l3-0.1c0.3,0,0.5,0.2,0.5,0.5c0,0.3-0.2,0.5-0.5,0.5L234.6,37.5
				C234.6,37.5,234.6,37.5,234.6,37.5z M240.6,37.3c-0.3,0-0.5-0.2-0.5-0.5c0-0.3,0.2-0.5,0.5-0.5l3-0.1c0.3,0,0.5,0.2,0.5,0.5
				c0,0.3-0.2,0.5-0.5,0.5L240.6,37.3C240.6,37.3,240.6,37.3,240.6,37.3z M246.6,37c-0.3,0-0.5-0.2-0.5-0.5c0-0.3,0.2-0.5,0.5-0.5
				l3-0.2c0.3,0,0.5,0.2,0.5,0.5c0,0.3-0.2,0.5-0.5,0.5L246.6,37C246.6,37,246.6,37,246.6,37z M252.6,36.6c-0.3,0-0.5-0.2-0.5-0.5
				c0-0.3,0.2-0.5,0.5-0.5l3-0.2c0.3,0,0.5,0.2,0.5,0.5c0,0.3-0.2,0.5-0.5,0.5L252.6,36.6C252.6,36.6,252.6,36.6,252.6,36.6z
				 M258.6,36.3c-0.3,0-0.5-0.2-0.5-0.5c0-0.3,0.2-0.5,0.5-0.5l3-0.2c0.3,0,0.5,0.2,0.5,0.5c0,0.3-0.2,0.5-0.5,0.5L258.6,36.3
				C258.6,36.3,258.6,36.3,258.6,36.3z M264.5,36c-0.3,0-0.5-0.2-0.5-0.5c0-0.3,0.2-0.5,0.5-0.5l3-0.2c0.3,0,0.5,0.2,0.5,0.5
				c0,0.3-0.2,0.5-0.5,0.5L264.5,36C264.6,36,264.5,36,264.5,36z M270.5,35.6c-0.3,0-0.5-0.2-0.5-0.5c0-0.3,0.2-0.5,0.5-0.5l3-0.2
				c0.3,0,0.5,0.2,0.5,0.5c0,0.3-0.2,0.5-0.5,0.5L270.5,35.6C270.5,35.6,270.5,35.6,270.5,35.6z M276.5,35.3c-0.3,0-0.5-0.2-0.5-0.5
				c0-0.3,0.2-0.5,0.5-0.5l3-0.2c0.3,0,0.5,0.2,0.5,0.5c0,0.3-0.2,0.5-0.5,0.5L276.5,35.3C276.5,35.3,276.5,35.3,276.5,35.3z
				 M282.5,34.8c-0.3,0-0.5-0.2-0.5-0.5c0-0.3,0.2-0.5,0.5-0.5c1.1-0.1,2.1-0.2,3-0.2c0.3,0,0.5,0.2,0.5,0.5c0,0.3-0.2,0.5-0.5,0.5
				C284.6,34.7,283.6,34.8,282.5,34.8C282.5,34.8,282.5,34.8,282.5,34.8z M288.5,34.4c-0.3,0-0.5-0.2-0.5-0.5c0-0.3,0.2-0.5,0.5-0.5
				c0.9-0.1,1.8-0.2,2.5-0.2l0.5-0.1c0.3,0,0.5,0.2,0.6,0.4c0,0.3-0.2,0.5-0.4,0.6l-0.5,0.1C290.3,34.2,289.5,34.3,288.5,34.4
				C288.5,34.4,288.5,34.4,288.5,34.4z M294.4,33.7c-0.3,0-0.5-0.2-0.5-0.4c0-0.3,0.2-0.5,0.4-0.6l3-0.3c0.3,0,0.5,0.2,0.6,0.4
				c0,0.3-0.2,0.5-0.4,0.6L294.4,33.7C294.5,33.7,294.4,33.7,294.4,33.7z M300.4,33c-0.3,0-0.5-0.2-0.5-0.4c0-0.3,0.2-0.5,0.4-0.6
				c1.1-0.1,2-0.2,3-0.3c0.3,0,0.5,0.2,0.5,0.4c0,0.3-0.2,0.5-0.4,0.5C302.5,32.8,301.5,32.9,300.4,33C300.4,33,300.4,33,300.4,33z
				 M306.3,32.4c-0.3,0-0.5-0.2-0.5-0.5c0-0.3,0.2-0.5,0.5-0.5c1.1-0.1,2.1-0.2,3-0.2c0.3,0,0.5,0.2,0.5,0.5c0,0.3-0.2,0.5-0.5,0.5
				C308.5,32.2,307.5,32.3,306.3,32.4C306.4,32.4,306.3,32.4,306.3,32.4z"/>
		</g>
	</g>
	<path class="st5" d="M188.1,78l-0.6-9.6c-0.1-1.7-1.5-3-3.2-3l-75.6,3.3c-1.7,0.1-3,1.5-3,3.2l0.4,10.1L188.1,78z"/>
	<g>
		<g>
			<path class="st5" d="M104.8,87.8c-0.3,0-0.5-0.2-0.5-0.5c0-0.3,0.2-0.5,0.5-0.5c0.4,0,0.9,0,1.5,0c0.2,0,0.5,0.2,0.5,0.5
				c0,0.3-0.2,0.5-0.5,0.5C105.7,87.8,105.2,87.8,104.8,87.8C104.8,87.8,104.8,87.8,104.8,87.8z"/>
		</g>
		<g>
			<path class="st5" d="M109.3,87.6c-0.3,0-0.5-0.2-0.5-0.5c0-0.3,0.2-0.5,0.5-0.5l3.1-0.1c0.3,0,0.5,0.2,0.5,0.5
				c0,0.3-0.2,0.5-0.5,0.5L109.3,87.6C109.3,87.6,109.3,87.6,109.3,87.6z M115.5,87.4c-0.3,0-0.5-0.2-0.5-0.5c0-0.3,0.2-0.5,0.5-0.5
				l3.1-0.1c0.3,0,0.5,0.2,0.5,0.5c0,0.3-0.2,0.5-0.5,0.5L115.5,87.4C115.5,87.4,115.5,87.4,115.5,87.4z M121.6,87.1
				c-0.3,0-0.5-0.2-0.5-0.5c0-0.3,0.2-0.5,0.5-0.5l3.1-0.1c0.3,0,0.5,0.2,0.5,0.5c0,0.3-0.2,0.5-0.5,0.5L121.6,87.1
				C121.6,87.1,121.6,87.1,121.6,87.1z M127.7,86.9c-0.3,0-0.5-0.2-0.5-0.5c0-0.3,0.2-0.5,0.5-0.5l3.1-0.1c0.3,0,0.5,0.2,0.5,0.5
				c0,0.3-0.2,0.5-0.5,0.5L127.7,86.9C127.7,86.9,127.7,86.9,127.7,86.9z M133.8,86.6c-0.3,0-0.5-0.2-0.5-0.5c0-0.3,0.2-0.5,0.5-0.5
				l3.1-0.1c0.3,0,0.5,0.2,0.5,0.5c0,0.3-0.2,0.5-0.5,0.5L133.8,86.6C133.9,86.6,133.8,86.6,133.8,86.6z M140,86.3
				c-0.3,0-0.5-0.2-0.5-0.5c0-0.3,0.2-0.5,0.5-0.5l3.1-0.1c0.3,0,0.5,0.2,0.5,0.5c0,0.3-0.2,0.5-0.5,0.5L140,86.3
				C140,86.3,140,86.3,140,86.3z M146.1,86c-0.3,0-0.5-0.2-0.5-0.5c0-0.3,0.2-0.5,0.5-0.5l3.1-0.1c0.3,0,0.5,0.2,0.5,0.5
				c0,0.3-0.2,0.5-0.5,0.5L146.1,86C146.1,86,146.1,86,146.1,86z M152.2,85.8c-0.3,0-0.5-0.2-0.5-0.5c0-0.3,0.2-0.5,0.5-0.5l3.1-0.1
				c0.3,0,0.5,0.2,0.5,0.5c0,0.3-0.2,0.5-0.5,0.5L152.2,85.8C152.2,85.8,152.2,85.8,152.2,85.8z M158.3,85.5c-0.3,0-0.5-0.2-0.5-0.5
				c0-0.3,0.2-0.5,0.5-0.5l3.1-0.1c0.3,0,0.5,0.2,0.5,0.5c0,0.3-0.2,0.5-0.5,0.5L158.3,85.5C158.4,85.5,158.4,85.5,158.3,85.5z
				 M164.5,85.2c-0.3,0-0.5-0.2-0.5-0.5c0-0.3,0.2-0.5,0.5-0.5l3.1-0.1c0.3,0,0.5,0.2,0.5,0.5c0,0.3-0.2,0.5-0.5,0.5L164.5,85.2
				C164.5,85.2,164.5,85.2,164.5,85.2z M170.6,84.9c-0.3,0-0.5-0.2-0.5-0.5c0-0.3,0.2-0.5,0.5-0.5l3.1-0.1c0.3,0,0.5,0.2,0.5,0.5
				c0,0.3-0.2,0.5-0.5,0.5L170.6,84.9C170.6,84.9,170.6,84.9,170.6,84.9z M176.7,84.6c-0.3,0-0.5-0.2-0.5-0.5c0-0.3,0.2-0.5,0.5-0.5
				l3.1-0.2c0.3,0,0.5,0.2,0.5,0.5c0,0.3-0.2,0.5-0.5,0.5L176.7,84.6C176.7,84.6,176.7,84.6,176.7,84.6z M182.9,84.3
				c-0.3,0-0.5-0.2-0.5-0.5c0-0.3,0.2-0.5,0.5-0.5l3.1-0.2c0.3,0,0.5,0.2,0.5,0.5c0,0.3-0.2,0.5-0.5,0.5L182.9,84.3
				C182.9,84.3,182.9,84.3,182.9,84.3z"/>
		</g>
		<g>
			<path class="st5" d="M188.9,84c-0.3,0-0.5-0.2-0.5-0.5c0-0.3,0.2-0.5,0.5-0.5l1.5-0.1c0.3,0,0.5,0.2,0.5,0.5
				c0,0.3-0.2,0.5-0.5,0.5L188.9,84C188.9,84,188.9,84,188.9,84z"/>
		</g>
	</g>
	<path class="st6" d="M186.6,57.1l-0.1-9.6c0-1.7-1.5-3.1-3.2-3l-75.6,1.9c-1.7,0-3.1,1.5-3,3.2l0.3,10.1L186.6,57.1z"/>
	<g>
		<g>
			<path class="st5" d="M104.4,65.4c-0.3,0-0.5-0.2-0.5-0.5c0-0.3,0.2-0.5,0.5-0.5c0.4,0,0.9,0,1.5,0c0.3,0,0.5,0.2,0.5,0.5
				c0,0.3-0.2,0.5-0.5,0.5C105.4,65.3,104.9,65.4,104.4,65.4C104.4,65.4,104.4,65.4,104.4,65.4z"/>
		</g>
		<g>
			<path class="st5" d="M109,65.3c-0.3,0-0.5-0.2-0.5-0.5c0-0.3,0.2-0.5,0.5-0.5l3-0.1c0.3,0,0.5,0.2,0.5,0.5c0,0.3-0.2,0.5-0.5,0.5
				L109,65.3C109,65.3,109,65.3,109,65.3z M115,65.2c-0.3,0-0.5-0.2-0.5-0.5c0-0.3,0.2-0.5,0.5-0.5l3-0.1c0.3,0,0.5,0.2,0.5,0.5
				c0,0.3-0.2,0.5-0.5,0.5L115,65.2C115,65.2,115,65.2,115,65.2z M121.1,65c-0.3,0-0.5-0.2-0.5-0.5c0-0.3,0.2-0.5,0.5-0.5l3-0.1
				c0.3,0,0.5,0.2,0.5,0.5c0,0.3-0.2,0.5-0.5,0.5L121.1,65C121.1,65,121.1,65,121.1,65z M127.1,64.9c-0.3,0-0.5-0.2-0.5-0.5
				c0-0.3,0.2-0.5,0.5-0.5l3-0.1c0.3,0,0.5,0.2,0.5,0.5c0,0.3-0.2,0.5-0.5,0.5L127.1,64.9C127.2,64.9,127.2,64.9,127.1,64.9z
				 M133.2,64.7c-0.3,0-0.5-0.2-0.5-0.5c0-0.3,0.2-0.5,0.5-0.5l3-0.1c0.3,0,0.5,0.2,0.5,0.5c0,0.3-0.2,0.5-0.5,0.5L133.2,64.7
				C133.2,64.7,133.2,64.7,133.2,64.7z M139.3,64.6c-0.3,0-0.5-0.2-0.5-0.5c0-0.3,0.2-0.5,0.5-0.5l3-0.1c0.3,0,0.5,0.2,0.5,0.5
				c0,0.3-0.2,0.5-0.5,0.5L139.3,64.6C139.3,64.6,139.3,64.6,139.3,64.6z M145.3,64.4c-0.3,0-0.5-0.2-0.5-0.5c0-0.3,0.2-0.5,0.5-0.5
				l3-0.1c0.2,0,0.5,0.2,0.5,0.5c0,0.3-0.2,0.5-0.5,0.5L145.3,64.4C145.3,64.4,145.3,64.4,145.3,64.4z M151.4,64.2
				c-0.3,0-0.5-0.2-0.5-0.5c0-0.3,0.2-0.5,0.5-0.5l3-0.1c0.3,0,0.5,0.2,0.5,0.5c0,0.3-0.2,0.5-0.5,0.5L151.4,64.2
				C151.4,64.2,151.4,64.2,151.4,64.2z M157.4,64.1c-0.3,0-0.5-0.2-0.5-0.5c0-0.3,0.2-0.5,0.5-0.5l3-0.1c0.3,0,0.5,0.2,0.5,0.5
				c0,0.3-0.2,0.5-0.5,0.5L157.4,64.1C157.5,64.1,157.4,64.1,157.4,64.1z M163.5,63.9c-0.3,0-0.5-0.2-0.5-0.5c0-0.3,0.2-0.5,0.5-0.5
				l3-0.1c0.2,0,0.5,0.2,0.5,0.5c0,0.3-0.2,0.5-0.5,0.5L163.5,63.9C163.5,63.9,163.5,63.9,163.5,63.9z M169.6,63.7
				c-0.3,0-0.5-0.2-0.5-0.5c0-0.3,0.2-0.5,0.5-0.5l3-0.1c0.3,0,0.5,0.2,0.5,0.5c0,0.3-0.2,0.5-0.5,0.5L169.6,63.7
				C169.6,63.7,169.6,63.7,169.6,63.7z M175.6,63.5c-0.3,0-0.5-0.2-0.5-0.5c0-0.3,0.2-0.5,0.5-0.5l3-0.1c0.3,0,0.5,0.2,0.5,0.5
				c0,0.3-0.2,0.5-0.5,0.5L175.6,63.5C175.6,63.5,175.6,63.5,175.6,63.5z M181.7,63.3c-0.3,0-0.5-0.2-0.5-0.5c0-0.3,0.2-0.5,0.5-0.5
				l3-0.1c0.2,0,0.5,0.2,0.5,0.5c0,0.3-0.2,0.5-0.5,0.5L181.7,63.3C181.7,63.3,181.7,63.3,181.7,63.3z"/>
		</g>
		<g>
			<path class="st5" d="M187.6,63.1c-0.3,0-0.5-0.2-0.5-0.5c0-0.3,0.2-0.5,0.5-0.5l1.5-0.1c0.3,0,0.5,0.2,0.5,0.5
				c0,0.3-0.2,0.5-0.5,0.5L187.6,63.1C187.6,63.1,187.6,63.1,187.6,63.1z"/>
		</g>
	</g>
	<path class="st7" d="M227.4,75.4l-0.2-9.6c-0.1-1.7,1.2-3.2,3-3.2l75.6-3.3c1.7-0.1,3.2,1.3,3.2,3l0.4,10.1L227.4,75.4z"/>
	<path class="st8" d="M228.7,67.2c-0.1-1.7,1.2-3.2,3-3.2l75.6-3.3c0.4,0,0.8,0,1.2,0.2c-0.6-1-1.6-1.6-2.8-1.5l-75.6,3.3
		c-1.7,0.1-3,1.5-3,3.2l0.2,9.6l1.6-0.1L228.7,67.2z"/>
	<g>
		<g>
			<path class="st5" d="M311.1,78.2c-0.3,0-0.5-0.2-0.5-0.5c0-0.3,0.2-0.5,0.5-0.5c0.6,0,1.1-0.1,1.5-0.1c0.3,0,0.5,0.2,0.5,0.5
				c0,0.3-0.2,0.5-0.5,0.5C312.3,78.1,311.8,78.1,311.1,78.2C311.2,78.2,311.2,78.2,311.1,78.2z"/>
		</g>
		<g>
			<path class="st5" d="M229.8,81.4c-0.3,0-0.5-0.2-0.5-0.5c0-0.3,0.2-0.5,0.5-0.5l2.9-0.1c0.3,0,0.5,0.2,0.5,0.5
				c0,0.3-0.2,0.5-0.5,0.5L229.8,81.4C229.8,81.4,229.8,81.4,229.8,81.4z M235.7,81.2c-0.3,0-0.5-0.2-0.5-0.5c0-0.3,0.2-0.5,0.5-0.5
				l2.9-0.1c0.3,0,0.5,0.2,0.5,0.5c0,0.3-0.2,0.5-0.5,0.5L235.7,81.2C235.7,81.2,235.7,81.2,235.7,81.2z M241.5,81
				c-0.3,0-0.5-0.2-0.5-0.5c0-0.3,0.2-0.5,0.5-0.5l2.9-0.1c0.3,0,0.5,0.2,0.5,0.5c0,0.3-0.2,0.5-0.5,0.5L241.5,81
				C241.5,81,241.5,81,241.5,81z M247.3,80.8c-0.3,0-0.5-0.2-0.5-0.5c0-0.3,0.2-0.5,0.5-0.5l2.9-0.1c0.3,0,0.5,0.2,0.5,0.5
				c0,0.3-0.2,0.5-0.5,0.5L247.3,80.8C247.3,80.8,247.3,80.8,247.3,80.8z M253.1,80.5c-0.3,0-0.5-0.2-0.5-0.5c0-0.3,0.2-0.5,0.5-0.5
				l2.9-0.1c0.3,0,0.5,0.2,0.5,0.5c0,0.3-0.2,0.5-0.5,0.5L253.1,80.5C253.1,80.5,253.1,80.5,253.1,80.5z M258.9,80.3
				c-0.3,0-0.5-0.2-0.5-0.5c0-0.3,0.2-0.5,0.5-0.5l2.9-0.1c0.3,0,0.5,0.2,0.5,0.5c0,0.3-0.2,0.5-0.5,0.5L258.9,80.3
				C258.9,80.3,258.9,80.3,258.9,80.3z M264.7,80.1c-0.3,0-0.5-0.2-0.5-0.5c0-0.3,0.2-0.5,0.5-0.5l2.9-0.1c0,0,0,0,0,0
				c0.3,0,0.5,0.2,0.5,0.5c0,0.3-0.2,0.5-0.5,0.5L264.7,80.1C264.7,80.1,264.7,80.1,264.7,80.1z M270.5,79.9c-0.3,0-0.5-0.2-0.5-0.5
				c0-0.3,0.2-0.5,0.5-0.5l2.9-0.1c0.3,0,0.5,0.2,0.5,0.5c0,0.3-0.2,0.5-0.5,0.5L270.5,79.9C270.5,79.9,270.5,79.9,270.5,79.9z
				 M276.3,79.6c-0.3,0-0.5-0.2-0.5-0.5c0-0.3,0.2-0.5,0.5-0.5l2.9-0.1c0.3,0,0.5,0.2,0.5,0.5c0,0.3-0.2,0.5-0.5,0.5L276.3,79.6
				C276.3,79.6,276.3,79.6,276.3,79.6z M282.1,79.4c-0.3,0-0.5-0.2-0.5-0.5c0-0.3,0.2-0.5,0.5-0.5l2.9-0.1c0.3,0,0.5,0.2,0.5,0.5
				c0,0.3-0.2,0.5-0.5,0.5L282.1,79.4C282.1,79.4,282.1,79.4,282.1,79.4z M287.9,79.2c-0.3,0-0.5-0.2-0.5-0.5c0-0.3,0.2-0.5,0.5-0.5
				l2.9-0.1c0.3,0,0.5,0.2,0.5,0.5c0,0.3-0.2,0.5-0.5,0.5L287.9,79.2C287.9,79.2,287.9,79.2,287.9,79.2z M293.7,79
				c-0.3,0-0.5-0.2-0.5-0.5c0-0.3,0.2-0.5,0.5-0.5l2.9-0.1c0.3,0,0.5,0.2,0.5,0.5c0,0.3-0.2,0.5-0.5,0.5L293.7,79
				C293.7,79,293.7,79,293.7,79z M299.5,78.7c-0.3,0-0.5-0.2-0.5-0.5c0-0.3,0.2-0.5,0.5-0.5l2.9-0.1c0.3,0,0.5,0.2,0.5,0.5
				c0,0.3-0.2,0.5-0.5,0.5L299.5,78.7C299.5,78.7,299.5,78.7,299.5,78.7z M305.3,78.5c-0.3,0-0.5-0.2-0.5-0.5c0-0.3,0.2-0.5,0.5-0.5
				l2.9-0.1c0.3,0,0.5,0.2,0.5,0.5c0,0.3-0.2,0.5-0.5,0.5L305.3,78.5C305.4,78.5,305.3,78.5,305.3,78.5z"/>
		</g>
		<g>
			<path class="st5" d="M225.6,81.5c-0.3,0-0.5-0.2-0.5-0.5c0-0.3,0.2-0.5,0.5-0.5l1.5,0c0,0,0,0,0,0c0.3,0,0.5,0.2,0.5,0.5
				c0,0.3-0.2,0.5-0.5,0.5L225.6,81.5C225.6,81.5,225.6,81.5,225.6,81.5z"/>
		</g>
	</g>
	<path class="st9" d="M227,54.5l-0.7-9.5c-0.1-1.7,1.2-3.2,2.9-3.3l75.5-4.7c1.7-0.1,3.2,1.2,3.3,2.9l0.6,10.1L227,54.5z"/>
	<path class="st10" d="M107.3,73.3c-0.1-1.7,1.3-3.2,3-3.2l75.6-3.3c0.4,0,0.8,0,1.2,0.2c-0.6-1-1.6-1.6-2.8-1.5l-75.6,3.3
		c-1.7,0.1-3,1.5-3,3.2l0.4,10.1l1.5-0.1L107.3,73.3z"/>
	<path class="st11" d="M106.3,50.9c0-1.7,1.3-3.1,3-3.2l75.6-1.9c0.4,0,0.8,0.1,1.1,0.2c-0.5-0.9-1.6-1.6-2.7-1.5l-75.6,1.9
		c-1.7,0-3.1,1.5-3,3.2l0.3,10.1l1.6,0L106.3,50.9z"/>
	<path class="st12" d="M227.9,46.3c-0.1-1.7,1.2-3.2,2.9-3.3l75.5-4.7c0.4,0,0.9,0,1.2,0.2c-0.6-1-1.6-1.6-2.8-1.5l-75.5,4.7
		c-1.7,0.1-3,1.6-2.9,3.3l0.7,9.5l1.5-0.1L227.9,46.3z"/>
	<g>
		<g>
			<path class="st5" d="M310.5,55.7c-0.3,0-0.5-0.2-0.5-0.5c0-0.3,0.2-0.5,0.5-0.5c0.6,0,1.1-0.1,1.5-0.1c0.3,0,0.5,0.2,0.5,0.5
				c0,0.3-0.2,0.5-0.5,0.5C311.6,55.7,311.1,55.7,310.5,55.7C310.5,55.7,310.5,55.7,310.5,55.7z"/>
		</g>
		<g>
			<path class="st5" d="M229.3,60.5c-0.3,0-0.5-0.2-0.5-0.5c0-0.3,0.2-0.5,0.5-0.5l2.9-0.2c0.3,0,0.5,0.2,0.5,0.5
				c0,0.3-0.2,0.5-0.5,0.5L229.3,60.5C229.3,60.5,229.3,60.5,229.3,60.5z M235.1,60.1c-0.3,0-0.5-0.2-0.5-0.5c0-0.3,0.2-0.5,0.5-0.5
				l2.9-0.2c0.3,0,0.5,0.2,0.5,0.5c0,0.3-0.2,0.5-0.5,0.5L235.1,60.1C235.1,60.1,235.1,60.1,235.1,60.1z M240.9,59.8
				c-0.3,0-0.5-0.2-0.5-0.5c0-0.3,0.2-0.5,0.5-0.5l2.9-0.2c0.3,0,0.5,0.2,0.5,0.5c0,0.3-0.2,0.5-0.5,0.5L240.9,59.8
				C240.9,59.8,240.9,59.8,240.9,59.8z M246.7,59.5c-0.3,0-0.5-0.2-0.5-0.5c0-0.3,0.2-0.5,0.5-0.5l2.9-0.2c0.3,0,0.5,0.2,0.5,0.5
				c0,0.3-0.2,0.5-0.5,0.5L246.7,59.5C246.7,59.5,246.7,59.5,246.7,59.5z M252.5,59.2c-0.3,0-0.5-0.2-0.5-0.5c0-0.3,0.2-0.5,0.5-0.5
				l2.9-0.2c0.3,0,0.5,0.2,0.5,0.5c0,0.3-0.2,0.5-0.5,0.5L252.5,59.2C252.5,59.2,252.5,59.2,252.5,59.2z M258.3,58.9
				c-0.3,0-0.5-0.2-0.5-0.5c0-0.3,0.2-0.5,0.5-0.5l2.9-0.2c0.3,0,0.5,0.2,0.5,0.5c0,0.3-0.2,0.5-0.5,0.5L258.3,58.9
				C258.3,58.9,258.3,58.9,258.3,58.9z M264.1,58.5c-0.3,0-0.5-0.2-0.5-0.5c0-0.3,0.2-0.5,0.5-0.5l2.9-0.2c0.3,0,0.5,0.2,0.5,0.5
				c0,0.3-0.2,0.5-0.5,0.5L264.1,58.5C264.1,58.5,264.1,58.5,264.1,58.5z M269.9,58.2c-0.3,0-0.5-0.2-0.5-0.5c0-0.3,0.2-0.5,0.5-0.5
				l2.9-0.2c0.3,0,0.5,0.2,0.5,0.5c0,0.3-0.2,0.5-0.5,0.5L269.9,58.2C269.9,58.2,269.9,58.2,269.9,58.2z M275.7,57.9
				c-0.3,0-0.5-0.2-0.5-0.5c0-0.3,0.2-0.5,0.5-0.5l2.9-0.2c0.3,0,0.5,0.2,0.5,0.5c0,0.3-0.2,0.5-0.5,0.5L275.7,57.9
				C275.7,57.9,275.7,57.9,275.7,57.9z M281.5,57.5c-0.3,0-0.5-0.2-0.5-0.5c0-0.3,0.2-0.5,0.5-0.5l2.9-0.2c0.3,0,0.5,0.2,0.5,0.5
				c0,0.3-0.2,0.5-0.5,0.5L281.5,57.5C281.5,57.5,281.5,57.5,281.5,57.5z M287.3,57.2c-0.3,0-0.5-0.2-0.5-0.5c0-0.3,0.2-0.5,0.5-0.5
				l2.9-0.2c0.3,0,0.5,0.2,0.5,0.5c0,0.3-0.2,0.5-0.5,0.5L287.3,57.2C287.3,57.2,287.3,57.2,287.3,57.2z M293.1,56.8
				c-0.3,0-0.5-0.2-0.5-0.5c0-0.3,0.2-0.5,0.5-0.5l2.9-0.2c0.3,0,0.5,0.2,0.5,0.5c0,0.3-0.2,0.5-0.5,0.5L293.1,56.8
				C293.1,56.8,293.1,56.8,293.1,56.8z M298.9,56.5c-0.3,0-0.5-0.2-0.5-0.5c0-0.3,0.2-0.5,0.5-0.5l2.9-0.2c0.3,0,0.5,0.2,0.5,0.5
				c0,0.3-0.2,0.5-0.5,0.5L298.9,56.5C298.9,56.5,298.9,56.5,298.9,56.5z M304.7,56.1c-0.3,0-0.5-0.2-0.5-0.5c0-0.3,0.2-0.5,0.5-0.5
				l2.9-0.2c0.3,0,0.5,0.2,0.5,0.5c0,0.3-0.2,0.5-0.5,0.5L304.7,56.1C304.7,56.1,304.7,56.1,304.7,56.1z"/>
		</g>
		<g>
			<path class="st5" d="M225,60.7c-0.3,0-0.5-0.2-0.5-0.5c0-0.3,0.2-0.5,0.5-0.5l1.5-0.1c0.3,0,0.5,0.2,0.5,0.5
				c0,0.3-0.2,0.5-0.5,0.5L225,60.7C225,60.7,225,60.7,225,60.7z"/>
		</g>
	</g>
</g>
<rect x="107" y="94.2" transform="matrix(0.9987 -5.034478e-02 5.034478e-02 0.9987 -4.602 6.3945)" class="st13" width="35.3" height="0.7"/>
<rect x="141.8" y="95" transform="matrix(0.9666 0.2563 -0.2563 0.9666 29.3728 -34.7861)" class="st13" width="12.7" height="0.7"/>
<circle class="st13" cx="154.8" cy="97.1" r="1.4"/>
<circle class="st2" cx="154.8" cy="97.2" r="0.8"/>
<rect x="108" y="101.9" transform="matrix(0.9987 -5.034478e-02 5.034478e-02 0.9987 -4.9762 6.8151)" class="st13" width="49.7" height="0.7"/>
<circle class="st13" cx="158.9" cy="100.9" r="1.4"/>
<circle class="st2" cx="158.9" cy="100.9" r="0.8"/>
<rect x="108.6" y="106.9" transform="matrix(0.9987 -5.034478e-02 5.034478e-02 0.9987 -5.2198 7.2607)" class="st13" width="65.9" height="0.7"/>
<circle class="st13" cx="175.7" cy="105.5" r="1.4"/>
<circle class="st2" cx="175.7" cy="105.5" r="0.8"/>
<rect x="109" y="111.6" transform="matrix(0.9987 -5.034478e-02 5.034478e-02 0.9987 -5.4516 7.5004)" class="st13" width="74.2" height="0.7"/>
<rect x="182.1" y="106.6" transform="matrix(0.8647 -0.5023 0.5023 0.8647 -28.2134 109.156)" class="st13" width="12.7" height="0.7"/>
<circle class="st13" cx="195.1" cy="103.1" r="1.4"/>
<circle class="st2" cx="195.1" cy="103.1" r="0.8"/>
<rect x="241.9" y="98.6" transform="matrix(-0.9987 5.034478e-02 -5.034478e-02 -0.9987 562.597 183.7689)" class="st13" width="74.2" height="0.7"/>
<rect x="230.3" y="103.6" transform="matrix(-0.8647 0.5023 -0.5023 -0.8647 493.4888 75.048)" class="st13" width="12.7" height="0.7"/>
<circle class="st13" cx="230" cy="107.9" r="1.4"/>
<circle class="st2" cx="230" cy="107.8" r="0.8"/>
<rect x="231.9" y="67.4" transform="matrix(0.9992 -3.879768e-02 3.879768e-02 0.9992 -2.4804 9.3941)" class="st13" width="17.9" height="2.3"/>
<rect x="253.4" y="66.7" transform="matrix(0.9992 -3.879768e-02 3.879768e-02 0.9992 -2.4348 10.2279)" class="st13" width="17.9" height="2.3"/>
<rect x="232.1" y="47.7" transform="matrix(0.9978 -6.594730e-02 6.594730e-02 0.9978 -2.7001 16.0024)" class="st13" width="17.9" height="2.3"/>
<circle class="st13" cx="301.3" cy="44.9" r="2.4"/>
<rect x="108.9" y="50.5" transform="matrix(0.9992 -3.879768e-02 3.879768e-02 0.9992 -1.9166 4.6101)" class="st13" width="17.9" height="2.3"/>
<rect x="130.4" y="49.8" transform="matrix(0.9992 -3.879768e-02 3.879768e-02 0.9992 -1.8709 5.4439)" class="st13" width="17.9" height="2.3"/>
<rect x="146.2" y="75.2" transform="matrix(0.9992 -3.879768e-02 3.879768e-02 0.9992 -2.8447 6.0761)" class="st13" width="17.9" height="2.3"/>
<rect x="167.7" y="74.4" transform="matrix(0.9992 -3.879768e-02 3.879768e-02 0.9992 -2.799 6.9099)" class="st13" width="17.9" height="2.3"/>
<rect x="264.9" y="103.2" transform="matrix(-0.9987 5.034478e-02 -5.034478e-02 -0.9987 586.0681 192.2245)" class="st13" width="51.5" height="0.7"/>
<circle class="st13" cx="263.7" cy="104.9" r="1.4"/>
<circle class="st2" cx="263.7" cy="104.9" r="0.8"/>
<rect x="251.7" y="94.5" transform="matrix(-0.9987 5.075343e-02 -5.075343e-02 -0.9987 541.9156 175.8439)" class="st13" width="34" height="0.7"/>
<circle class="st13" cx="250.5" cy="95.7" r="1.4"/>
<circle class="st2" cx="250.5" cy="95.6" r="0.8"/>
<g>
	<path class="st13" d="M299.5,92.6c-0.3,0.2-1.1,0.4-2.1,0.5c-2.8,0.1-4.3-1.5-4.4-3.8c-0.1-2.8,1.7-4.4,4.2-4.5
		c0.9,0,1.7,0.1,2,0.3l-0.3,1.5c-0.4-0.1-0.9-0.3-1.5-0.2c-1.4,0.1-2.5,1-2.4,2.8c0.1,1.6,1.1,2.6,2.7,2.5c0.6,0,1.2-0.2,1.5-0.3
		L299.5,92.6z"/>
	<path class="st13" d="M302.2,92.6l-2.3-8l2-0.1l0.8,3.3c0.2,0.9,0.5,2,0.6,2.8l0,0c0.1-0.9,0.2-1.9,0.4-2.9l0.5-3.3l1.9-0.1
		l0.8,3.4c0.2,0.9,0.4,1.8,0.6,2.7l0,0c0.1-0.9,0.2-1.9,0.3-2.8l0.5-3.3l1.9-0.1l-1.7,8.2l-2,0.1l-0.9-3.4c-0.2-0.8-0.4-1.6-0.5-2.5
		l0,0c-0.1,0.9-0.2,1.7-0.3,2.5l-0.6,3.5L302.2,92.6z"/>
</g>
</svg>
